<svg id="Layer_1" data-name="Layer 1" xmlns="http://www.w3.org/2000/svg" viewBox="0 0 171.62 106.41"><defs><style>.cls-1{fill:#fff;fill-rule:evenodd;}</style></defs><path class="cls-1" d="M74.39,45.56c7.14-17.64-6.22-22.43-15-22.43l-28.84,0a4.08,4.08,0,0,1,1.54,5.16L15.33,82.06a8.58,8.58,0,0,1-4.53,4.71H34.15a3.72,3.72,0,0,1-2.47-4.57l6.11-19.43s28.1,3.8,36.6-17.21M51.7,28.06c3,0,11.51.41,6.06,16.43C52,61.28,39.34,57.84,39.34,57.84l9.34-29.78Z"/><path class="cls-1" d="M93.08,86.77h15.68c-5-1.63-12.46-6.36-15.41-9.75,2.4-2.64,5.36-5.89,5.9-12.6H91.09a3.4,3.4,0,0,1,1.58,2.81,10.37,10.37,0,0,1-2.09,5.94c-2.39-3.53-5-7.57-5.82-13.49,3.18-1.6,7.67-3.32,11.25-6.43,3.39-3,4.15-5.77,4.23-7.6v-.24a7.05,7.05,0,0,0-2.13-5c-2.36-2.35-6.09-3.3-10-2.57A15.39,15.39,0,0,0,81,41.3c-4.76,4.43-5.37,11.78-5.37,15.1,0,.78,0,1.41.06,1.78-.27.09-.74.29-.74.29-3.46,1.26-12.72,3.75-16.05,11.36a14.93,14.93,0,0,0-1,5.46,12.39,12.39,0,0,0,1.77,6.56C62,85.48,66,87.78,72.27,87.67,79.16,87.55,86,82.86,87.15,82c1.21,1.11,4.29,4,5.93,4.78m0-42.49c-.81,5.12-7.44,10.3-9,11-.29-2.89-.17-7.42,2.26-11.14,1.57-2.47,3.69-3.54,5.4-3,1.35.47,1.52,1.74,1.39,3.09M83.84,78.51a22.14,22.14,0,0,1-8,2.75c-3.17.29-8.45-.94-8.42-7.28,0-5.44,5.91-9.39,9.08-10.78a46.37,46.37,0,0,0,7.33,15.31"/><path class="cls-1" d="M140.81,28.13c9.34-2.24,17,5.06,17.75,5.57l2.66-8.48C157.53,24.11,130.74,15,111.8,36.67c-11.64,13.28-14.49,40.54.27,47.84,15.83,7.81,33.28-1.22,34.54-1.83l7.24-23c.77-2.79,2.56-4.59,5.66-5.75h-25.1c3.67,1.56,3.4,4.31,3.09,5.43l-7.19,23c-1,.19-21.15,5.2-9.84-30.08,2.43-7.59,9.24-21.48,20.34-24.15"/></svg>