<?xml version="1.0" encoding="UTF-8"?>
<svg width="24px" height="26px" viewBox="0 0 24 26" version="1.1" xmlns="http://www.w3.org/2000/svg" xmlns:xlink="http://www.w3.org/1999/xlink">
    <!-- Generator: Sketch 55.2 (78181) - https://sketchapp.com -->
    <title>Group 9</title>
    <desc>Created with Sketch.</desc>
    <g id="SVG-Conversion" stroke="none" stroke-width="1" fill="none" fill-rule="evenodd">
        <g id="ICONS-ONLY" transform="translate(-91.000000, -272.000000)" fill="#23489E" fill-rule="nonzero">
            <g id="Group-9" transform="translate(91.163707, 272.868696)">
                <path d="M8.63636364,0 L-6.39488462e-14,2.23496566 L-6.39488462e-14,17.3676053 L8.63636364,19.8557024 L8.63636364,0 Z M7.63636364,18.5269346 L1,16.6150283 L1,3.00912253 L7.63636364,1.29172786 L7.63636364,18.5269346 Z" id="Path-46"></path>
                <polygon id="Path-53" points="2.53762668 7.78863045 6.03618307 13.6378213 6.8943845 13.1245082 3.39582811 7.27531738"></polygon>
                <polygon id="Path-54" points="6.03945041 6.79964745 2.54089403 12.4850063 3.39256077 13.00909 6.89111715 7.32373119"></polygon>
                <polygon id="Path-39" points="15.2727273 15.5565275 16.2727273 15.5565275 16.2727273 2.32768211 8.13636364 2.32768211 8.13636364 3.32768211 15.2727273 3.32768211"></polygon>
                <polygon id="Path-52" points="14.1220069 16.5095003 8.13636364 16.5095003 8.13636364 17.5095003 14.1220069 17.5095003"></polygon>
                <polygon id="Path-55" points="8.13636364 7.00476967 10.6934355 7.00476967 10.6934355 6.00476967 8.13636364 6.00476967"></polygon>
                <polygon id="Path-55-Copy-2" points="8.13636364 9.20273284 10.6934355 9.20273284 10.6934355 8.20273284 8.13636364 8.20273284"></polygon>
                <polygon id="Path-55-Copy-4" points="8.13636364 11.4884471 10.6934355 11.4884471 10.6934355 10.4884471 8.13636364 10.4884471"></polygon>
                <polygon id="Path-55-Copy-6" points="8.13636364 13.7741614 10.6934355 13.7741614 10.6934355 12.7741614 8.13636364 12.7741614"></polygon>
                <polygon id="Path-55-Copy" points="11.264864 7.00476967 14.5708071 7.00476967 14.5708071 6.00476967 11.264864 6.00476967"></polygon>
                <polygon id="Path-55-Copy-3" points="11.264864 9.20273284 14.5708071 9.20273284 14.5708071 8.20273284 11.264864 8.20273284"></polygon>
                <polygon id="Path-55-Copy-5" points="11.264864 11.4884471 14.5708071 11.4884471 14.5708071 10.4884471 11.264864 10.4884471"></polygon>
                <polygon id="Path-55-Copy-7" points="11.264864 13.7741614 14.5708071 13.7741614 14.5708071 12.7741614 11.264864 12.7741614"></polygon>
                <path d="M18.1623377,24.5224873 C20.9632103,24.5224873 23.2337662,22.2519314 23.2337662,19.4510587 C23.2337662,16.6501861 20.9632103,14.3796302 18.1623377,14.3796302 C15.361465,14.3796302 13.0909091,16.6501861 13.0909091,19.4510587 C13.0909091,22.2519314 15.361465,24.5224873 18.1623377,24.5224873 Z M18.1623377,23.5224873 C15.9137498,23.5224873 14.0909091,21.6996466 14.0909091,19.4510587 C14.0909091,17.2024708 15.9137498,15.3796302 18.1623377,15.3796302 C20.4109256,15.3796302 22.2337662,17.2024708 22.2337662,19.4510587 C22.2337662,21.6996466 20.4109256,23.5224873 18.1623377,23.5224873 Z" id="Oval"></path>
                <polygon id="Path-43" points="17.6623377 16.8566809 17.6623377 21.2485615 18.6623377 21.2485615 18.6623377 16.8566809"></polygon>
                <polygon id="Path-44" transform="translate(18.122007, 20.525956) scale(1, -1) translate(-18.122007, -20.525956) " points="20.0541678 22.1991434 20.7612746 21.4920366 18.1220069 18.8527689 15.4827392 21.4920366 16.189846 22.1991434 18.1220069 20.2669825"></polygon>
            </g>
        </g>
    </g>
</svg>