<?xml version="1.0" encoding="UTF-8"?>
<svg width="25px" height="26px" viewBox="0 0 25 26" version="1.1" xmlns="http://www.w3.org/2000/svg" xmlns:xlink="http://www.w3.org/1999/xlink">
    <!-- Generator: Sketch 55.2 (78181) - https://sketchapp.com -->
    <title>Group 8</title>
    <desc>Created with Sketch.</desc>
    <g id="SVG-Conversion" stroke="none" stroke-width="1" fill="none" fill-rule="evenodd">
        <g id="ICONS-ONLY" transform="translate(-88.000000, -206.000000)" fill="#23489E" fill-rule="nonzero">
            <g id="Group-8" transform="translate(88.193876, 206.875702)">
                <path d="M8.98347107,0 L-4.26325641e-14,2.22371412 L-4.26325641e-14,17.3651629 L8.98347107,19.8407341 L8.98347107,0 Z M7.98347107,18.52789 L1,16.6034579 L1,3.00636124 L7.98347107,1.27771503 L7.98347107,18.52789 Z" id="Path-46"></path>
                <polygon id="Path-53" points="2.65491208 7.79006273 6.31249376 13.6392536 7.16037233 13.1090631 3.50279066 7.25987227"></polygon>
                <polygon id="Path-54" points="6.31593494 6.7841624 2.65835327 12.4695212 3.49934947 13.0105623 7.15693115 7.32520341"></polygon>
                <polygon id="Path-39" points="15.9669421 15.6145322 16.9669421 15.6145322 16.9669421 2.3206757 8.48347107 2.3206757 8.48347107 3.3206757 15.9669421 3.3206757"></polygon>
                <polygon id="Path-52" points="14.741189 16.5024939 8.48347107 16.5024939 8.48347107 17.5024939 14.741189 17.5024939"></polygon>
                <polygon id="Path-55" points="8.48347107 6.99776326 11.1567734 6.99776326 11.1567734 5.99776326 8.48347107 5.99776326"></polygon>
                <polygon id="Path-55-Copy-2" points="8.48347107 9.19572643 11.1567734 9.19572643 11.1567734 8.19572643 8.48347107 8.19572643"></polygon>
                <polygon id="Path-55-Copy-4" points="8.48347107 11.4814407 11.1567734 11.4814407 11.1567734 10.4814407 8.48347107 10.4814407"></polygon>
                <polygon id="Path-55-Copy-6" points="8.48347107 13.767155 11.1567734 13.767155 11.1567734 12.767155 8.48347107 12.767155"></polygon>
                <polygon id="Path-55-Copy" points="11.754176 6.99776326 15.2103893 6.99776326 15.2103893 5.99776326 11.754176 5.99776326"></polygon>
                <polygon id="Path-55-Copy-3" points="11.754176 9.19572643 15.2103893 9.19572643 15.2103893 8.19572643 11.754176 8.19572643"></polygon>
                <polygon id="Path-55-Copy-5" points="11.754176 11.4814407 15.2103893 11.4814407 15.2103893 10.4814407 11.754176 10.4814407"></polygon>
                <polygon id="Path-55-Copy-7" points="11.754176 13.767155 15.2103893 13.767155 15.2103893 12.767155 11.754176 12.767155"></polygon>
                <path d="M18.9651712,24.5154809 C21.8759547,24.5154809 24.244392,22.2500192 24.244392,19.4440523 C24.244392,16.6380855 21.8759547,14.3726238 18.9651712,14.3726238 C16.0543877,14.3726238 13.6859504,16.6380855 13.6859504,19.4440523 C13.6859504,22.2500192 16.0543877,24.5154809 18.9651712,24.5154809 Z M18.9651712,23.5154809 C16.5969732,23.5154809 14.6859504,21.6875461 14.6859504,19.4440523 C14.6859504,17.2005586 16.5969732,15.3726238 18.9651712,15.3726238 C21.3333692,15.3726238 23.244392,17.2005586 23.244392,19.4440523 C23.244392,21.6875461 21.3333692,23.5154809 18.9651712,23.5154809 Z" id="Oval"></path>
                <polygon id="Path-43" points="18.4651712 17.9925317 18.4651712 22.3844123 19.4651712 22.3844123 19.4651712 17.9925317"></polygon>
                <polygon id="Path-44" points="20.9670063 19.9141902 21.6582289 19.1915484 18.9230072 16.5752493 16.1877855 19.1915484 16.8790081 19.9141902 18.9230072 17.9590607"></polygon>
            </g>
        </g>
    </g>
</svg>