<?xml version="1.0" encoding="utf-8"?>
<!-- Generator: Adobe Illustrator 24.1.0, SVG Export Plug-In . SVG Version: 6.00 Build 0)  -->
<svg version="1.1" id="Capa_1" xmlns="http://www.w3.org/2000/svg" xmlns:xlink="http://www.w3.org/1999/xlink" x="0px" y="0px"
	 viewBox="0 0 512 512" style="enable-background:new 0 0 512 512;" xml:space="preserve">
<g>
	<g>
		<path d="M446,181.2H281.3v-38c0-3.8-1.7-7.3-4.6-9.8c-2.9-2.4-6.8-3.4-10.4-2.7l-202.7,38c-6,1.1-10.3,6.3-10.3,12.4v278.7
			c0,6.1,4.3,11.3,10.3,12.4l202.7,38c0.8,0.2,1.5,0.2,2.3,0.2c2.9,0,5.8-1,8.1-2.9c2.9-2.4,4.6-6,4.6-9.8v-38H446
			c7,0,12.7-5.7,12.7-12.7V193.9C458.7,186.9,453,181.2,446,181.2z M227.5,362.9c4.6,5.2,4.1,13.2-1.2,17.9
			c-2.4,2.1-5.4,3.1-8.3,3.1c-3.5,0-7-1.5-9.5-4.3l-36.8-42.1L139.3,379c-2.5,3.2-6.3,4.9-10,4.9c-2.7,0-5.4-0.9-7.8-2.7
			c-5.5-4.3-6.5-12.3-2.2-17.8l35.3-45.4l-34.8-39.8c-4.6-5.2-4.1-13.2,1.2-17.9c5.2-4.6,13.2-4.1,17.9,1.2l31.6,36.1l37.5-48.2
			c4.3-5.5,12.3-6.5,17.8-2.2c5.5,4.3,6.5,12.2,2.2,17.8l-40.5,52.1L227.5,362.9z M433.3,434.5h-152v-25.3h38
			c7,0,12.7-5.7,12.7-12.7c0-7-5.7-12.7-12.7-12.7h-38v-25.3h38c7,0,12.7-5.7,12.7-12.7c0-7-5.7-12.7-12.7-12.7h-38v-25.3h38
			c7,0,12.7-5.7,12.7-12.7s-5.7-12.7-12.7-12.7h-38v-25.3h38c7,0,12.7-5.7,12.7-12.7c0-7-5.7-12.7-12.7-12.7h-38v-25.3h152V434.5z"
			/>
	</g>
</g>
<g>
	<g>
		<path d="M395.3,231.9H370c-7,0-12.7,5.7-12.7,12.7c0,7,5.7,12.7,12.7,12.7h25.3c7,0,12.7-5.7,12.7-12.7
			C408,237.5,402.3,231.9,395.3,231.9z"/>
	</g>
</g>
<g>
	<g>
		<path d="M395.3,282.5H370c-7,0-12.7,5.7-12.7,12.7c0,7,5.7,12.7,12.7,12.7h25.3c7,0,12.7-5.7,12.7-12.7
			C408,288.2,402.3,282.5,395.3,282.5z"/>
	</g>
</g>
<g>
	<g>
		<path d="M395.3,333.2H370c-7,0-12.7,5.7-12.7,12.7c0,7,5.7,12.7,12.7,12.7h25.3c7,0,12.7-5.7,12.7-12.7
			C408,338.9,402.3,333.2,395.3,333.2z"/>
	</g>
</g>
<g>
	<g>
		<path d="M395.3,383.9H370c-7,0-12.7,5.7-12.7,12.7c0,7,5.7,12.7,12.7,12.7h25.3c7,0,12.7-5.7,12.7-12.7
			C408,389.5,402.3,383.9,395.3,383.9z"/>
	</g>
</g>
<g>
	<g>
		<path d="M346.7,86.8L262.6,2.7c-3.6-3.6-9.6-3.6-13.2,0l-84.1,84.1c-5.9,5.9-1.7,16,6.6,16l168.2,0
			C348.4,102.8,352.6,92.7,346.7,86.8z"/>
	</g>
</g>
</svg>
