<?xml version="1.0" encoding="utf-8"?>
<!-- Generator: Adobe Illustrator 24.1.0, SVG Export Plug-In . SVG Version: 6.00 Build 0)  -->
<svg version="1.1" id="Capa_1" xmlns="http://www.w3.org/2000/svg" xmlns:xlink="http://www.w3.org/1999/xlink" x="0px" y="0px"
	 viewBox="0 0 512 512" style="enable-background:new 0 0 512 512;" xml:space="preserve">
<g>
	<g>
		<path d="M446,51.2H281.3v-38c0-3.8-1.7-7.3-4.6-9.8C273.9,1,270,0,266.3,0.8l-202.7,38c-6,1.1-10.3,6.3-10.3,12.4v278.7
			c0,6.1,4.3,11.3,10.3,12.4l202.7,38c0.8,0.2,1.5,0.2,2.3,0.2c2.9,0,5.8-1,8.1-2.9c2.9-2.4,4.6-6,4.6-9.8v-38H446
			c7,0,12.7-5.7,12.7-12.7V63.9C458.7,56.9,453,51.2,446,51.2z M227.5,232.9c4.6,5.2,4.1,13.2-1.2,17.9c-2.4,2.1-5.4,3.1-8.3,3.1
			c-3.5,0-7-1.5-9.5-4.3l-36.8-42.1L139.3,249c-2.5,3.2-6.3,4.9-10,4.9c-2.7,0-5.4-0.9-7.8-2.7c-5.5-4.3-6.5-12.3-2.2-17.8
			l35.3-45.4l-34.8-39.8c-4.6-5.2-4.1-13.2,1.2-17.9c5.2-4.6,13.2-4.1,17.9,1.2l31.6,36.1l37.5-48.2c4.3-5.5,12.3-6.5,17.8-2.2
			c5.5,4.3,6.5,12.2,2.2,17.8l-40.5,52.1L227.5,232.9z M433.3,304.5h-152v-25.3h38c7,0,12.7-5.7,12.7-12.7c0-7-5.7-12.7-12.7-12.7
			h-38v-25.3h38c7,0,12.7-5.7,12.7-12.7s-5.7-12.7-12.7-12.7h-38v-25.3h38c7,0,12.7-5.7,12.7-12.7s-5.7-12.7-12.7-12.7h-38v-25.3h38
			c7,0,12.7-5.7,12.7-12.7s-5.7-12.7-12.7-12.7h-38V76.5h152V304.5z"/>
	</g>
</g>
<g>
	<g>
		<path d="M395.3,101.9H370c-7,0-12.7,5.7-12.7,12.7c0,7,5.7,12.7,12.7,12.7h25.3c7,0,12.7-5.7,12.7-12.7
			C408,107.5,402.3,101.9,395.3,101.9z"/>
	</g>
</g>
<g>
	<g>
		<path d="M395.3,152.5H370c-7,0-12.7,5.7-12.7,12.7s5.7,12.7,12.7,12.7h25.3c7,0,12.7-5.7,12.7-12.7S402.3,152.5,395.3,152.5z"/>
	</g>
</g>
<g>
	<g>
		<path d="M395.3,203.2H370c-7,0-12.7,5.7-12.7,12.7s5.7,12.7,12.7,12.7h25.3c7,0,12.7-5.7,12.7-12.7S402.3,203.2,395.3,203.2z"/>
	</g>
</g>
<g>
	<g>
		<path d="M395.3,253.9H370c-7,0-12.7,5.7-12.7,12.7c0,7,5.7,12.7,12.7,12.7h25.3c7,0,12.7-5.7,12.7-12.7
			C408,259.5,402.3,253.9,395.3,253.9z"/>
	</g>
</g>
<g>
	<g>
		<path d="M179.3,421.8l84.1,84.1c3.6,3.6,9.6,3.6,13.2,0l84.1-84.1c5.9-5.9,1.7-16-6.6-16H185.9
			C177.6,405.8,173.4,415.9,179.3,421.8z"/>
	</g>
</g>
</svg>
