<?xml version="1.0" standalone="no"?>
<!DOCTYPE svg PUBLIC "-//W3C//DTD SVG 1.1//EN" "http://www.w3.org/Graphics/SVG/1.1/DTD/svg11.dtd" >
<svg xmlns="http://www.w3.org/2000/svg">
<metadata>Generated by IcoMoon</metadata>
<defs>
<font id="icomoon" horiz-adv-x="1024">
<font-face units-per-em="1024" ascent="960" descent="-64" />
<missing-glyph horiz-adv-x="1024" />
<glyph unicode="&#x20;" horiz-adv-x="512" d="" />
<glyph unicode="&#xe900;" glyph-name="Action" d="M512.032-64c-282.784 0-512 229.216-512 512s229.216 512 512 512c282.784 0 512-229.216 512-512v0c0-282.784-229.216-512-512-512v0zM512.032 911.84c-256.16 0-463.84-207.648-463.84-463.84s207.648-463.84 463.84-463.84c256.16 0 463.84 207.648 463.84 463.84v0c-0.16 256.096-207.712 463.68-463.808 463.84v0zM372.128 236.8l-2.688 420 390.304-208.672zM419.072 576.032v-257.152l238.304 129.248z" />
<glyph unicode="&#xe901;" glyph-name="Action-G" d="M512.032-64c-282.784 0-512 229.216-512 512s229.216 512 512 512c282.784 0 512-229.216 512-512v0c0-282.784-229.216-512-512-512v0zM512.032 911.84c-256.16 0-463.84-207.648-463.84-463.84s207.648-463.84 463.84-463.84c256.16 0 463.84 207.648 463.84 463.84v0c-0.16 256.096-207.712 463.68-463.808 463.84v0zM372.128 236.8l-2.688 420 390.304-208.672zM419.072 576.032v-257.152l238.304 129.248z" />
<glyph unicode="&#xe902;" glyph-name="Add-Line" d="M65.152 610.912c-9.312 0-13.952 4.64-18.624 13.952s0 18.624 4.64 27.936l288.576 283.936c4.64 4.64 18.624 9.312 23.264 4.64 9.312 0 18.624-9.312 18.624-18.624l4.64-274.624c0-13.952-9.312-23.264-23.264-23.264l-297.888-13.952c0 0 0 0 0 0zM335.136 866.912l-209.44-209.44 214.112 9.312-4.64 200.16zM809.888-45.376h-786.624v679.552l325.824 325.824h460.8v-456.16c0-13.952-9.312-23.264-23.264-23.264s-23.264 9.312-23.264 23.264v409.6h-395.648l-297.888-297.888v-609.76h693.536v93.088c0 13.952 9.312 23.264 23.264 23.264s23.264-9.312 23.264-23.264v-144.288zM781.952 80.288c-121.024 0-218.752 97.76-218.752 218.752s97.76 218.752 218.752 218.752 218.752-97.76 218.752-218.752c0-121.024-97.76-218.752-218.752-218.752zM781.952 471.264c-93.088 0-172.224-79.136-172.224-172.224s74.464-172.224 172.224-172.224 172.224 79.136 172.224 172.224-74.464 172.224-172.224 172.224zM786.624 173.376c-4.64 0-13.952 4.64-13.952 13.952v237.376c0 4.64 4.64 13.952 13.952 13.952s13.952-4.64 13.952-13.952v-237.376c0-9.312-4.64-13.952-13.952-13.952zM907.648 294.4h-237.376c-4.64 0-13.952 4.64-13.952 13.952s4.64 13.952 13.952 13.952h237.376c4.64 0 13.952-4.64 13.952-13.952s-9.312-13.952-13.952-13.952z" />
<glyph unicode="&#xe903;" glyph-name="Add-Line-G" d="M65.152 610.912c-9.312 0-13.952 4.64-18.624 13.952s0 18.624 4.64 27.936l288.576 283.936c4.64 4.64 18.624 9.312 23.264 4.64 9.312 0 18.624-9.312 18.624-18.624l4.64-274.624c0-13.952-9.312-23.264-23.264-23.264l-297.888-13.952c0 0 0 0 0 0zM335.136 866.912l-209.44-209.44 214.112 9.312-4.64 200.16zM809.888-45.376h-786.624v679.552l325.824 325.824h460.8v-456.16c0-13.952-9.312-23.264-23.264-23.264s-23.264 9.312-23.264 23.264v409.6h-395.648l-297.888-297.888v-609.76h693.536v93.088c0 13.952 9.312 23.264 23.264 23.264s23.264-9.312 23.264-23.264v-144.288zM781.952 80.288c-121.024 0-218.752 97.76-218.752 218.752s97.76 218.752 218.752 218.752 218.752-97.76 218.752-218.752c0-121.024-97.76-218.752-218.752-218.752zM781.952 471.264c-93.088 0-172.224-79.136-172.224-172.224s74.464-172.224 172.224-172.224 172.224 79.136 172.224 172.224-74.464 172.224-172.224 172.224zM786.624 173.376c-4.64 0-13.952 4.64-13.952 13.952v237.376c0 4.64 4.64 13.952 13.952 13.952s13.952-4.64 13.952-13.952v-237.376c0-9.312-4.64-13.952-13.952-13.952zM907.648 294.4h-237.376c-4.64 0-13.952 4.64-13.952 13.952s4.64 13.952 13.952 13.952h237.376c4.64 0 13.952-4.64 13.952-13.952s-9.312-13.952-13.952-13.952z" />
<glyph unicode="&#xe904;" glyph-name="ALLOCATION-KEY" d="M1006.944 960h-153.6c0 0 0 0 0 0-9.44 0-17.056-7.648-17.056-17.056 0-4.704 1.92-8.992 4.992-12.064v0l39.136-39.136-82.528-82.656c-77.696 62.176-177.376 99.776-285.856 99.776s-208.192-37.6-286.784-100.48l0.928 0.704-82.528 82.656 39.136 39.136c3.104 3.104 4.992 7.36 4.992 12.064 0 9.44-7.648 17.056-17.056 17.056 0 0 0 0 0 0h-153.6c-9.44 0-17.056-7.648-17.056-17.056v0-153.6c0 0 0 0 0 0 0-9.44 7.648-17.056 17.056-17.056 4.704 0 8.992 1.92 12.064 4.992v0l39.136 39.136 82.656-82.528c-62.176-77.696-99.776-177.376-99.776-285.856s37.6-208.192 100.48-286.784l-0.704 0.928-82.656-82.528-39.136 39.136c-3.104 3.104-7.36 4.992-12.064 4.992-9.44 0-17.056-7.648-17.056-17.056 0 0 0 0 0 0v0-153.6c0-9.44 7.648-17.056 17.056-17.056h153.6c0 0 0 0 0 0 9.44 0 17.056 7.648 17.056 17.056 0 4.704-1.92 8.992-4.992 12.064v0l-39.136 39.136 82.528 82.656c77.696-62.176 177.376-99.776 285.856-99.776s208.192 37.6 286.784 100.48l-0.928-0.704 82.528-82.656-39.136-39.136c-3.104-3.104-4.992-7.36-4.992-12.064 0-9.44 7.648-17.056 17.056-17.056 0 0 0 0 0 0h153.6c9.44 0 17.056 7.648 17.056 17.056v0 153.6c0 0 0 0 0 0 0 9.44-7.648 17.056-17.056 17.056-4.704 0-8.992-1.92-12.064-4.992v0l-39.136-39.136-82.656 82.528c62.176 77.696 99.776 177.376 99.776 285.856s-37.6 208.192-100.48 286.784l0.704-0.928 82.656 82.528 39.136-39.136c3.104-3.104 7.36-4.992 12.064-4.992 9.44 0 17.056 7.648 17.056 17.056 0 0 0 0 0 0v0 153.6c0 9.44-7.648 17.056-17.056 17.056v0zM172.96 759.936l-92.64 92.672c-3.104 3.104-7.36 4.992-12.064 4.992s-8.992-1.92-12.064-4.992v0l-22.048-22.048v95.328h95.328l-22.048-22.048c-3.104-3.104-4.992-7.36-4.992-12.064s1.92-8.992 4.992-12.064l92.672-92.64c-1.76-1.632-3.328-3.424-5.024-5.024q-8.544-8.288-17.056-17.056c-1.568-1.664-3.36-3.232-4.992-4.992zM200.032 108.96l-92.64-92.64c-3.104-3.104-4.992-7.36-4.992-12.064s1.92-8.992 4.992-12.064v0l22.048-22.048h-95.328v95.328l22.048-22.048c3.104-3.104 7.36-4.992 12.064-4.992s8.992 1.92 12.064 4.992v0l92.672 92.672c1.632-1.76 3.424-3.328 5.024-5.024q8.288-8.544 17.056-17.056c1.632-1.568 3.2-3.36 4.96-4.992zM850.976 136.032l92.672-92.672c3.104-3.104 7.36-4.992 12.064-4.992s8.992 1.92 12.064 4.992v0l22.048 22.048v-95.264h-95.328l22.048 22.048c3.104 3.104 4.992 7.36 4.992 12.064s-1.92 8.992-4.992 12.064v0l-92.672 92.672c1.76 1.632 3.328 3.424 5.024 5.024q8.544 8.288 17.056 17.056c1.568 1.632 3.36 3.2 4.992 4.96zM833.12 167.52q-7.712-8.8-15.872-17.056-3.712-3.808-7.52-7.52-8.544-8.16-17.056-15.776c-74.496-65.6-172.864-105.632-280.576-105.632s-206.080 40.032-281.056 106.048l0.48-0.416c-5.856 5.12-11.552 10.368-17.056 15.776q-3.808 3.712-7.52 7.52-8.192 8.544-15.872 17.056c-65.536 74.464-105.536 172.8-105.536 280.48s40 206.016 105.952 280.928l-0.416-0.48q7.712 8.8 15.872 17.056 3.712 3.808 7.52 7.52 8.544 8.16 17.056 15.776c74.496 65.6 172.864 105.632 280.576 105.632s206.080-40.032 281.056-106.048l-0.48 0.416c5.856-5.12 11.552-10.368 17.056-15.776q3.808-3.712 7.52-7.52 8.192-8.544 15.872-17.056c65.536-74.464 105.536-172.8 105.536-280.48s-40-206.016-105.952-280.928l0.416 0.48zM989.856 830.56l-22.048 22.048c-3.104 3.104-7.36 4.992-12.064 4.992s-8.992-1.92-12.064-4.992l-92.64-92.672c-1.632 1.76-3.424 3.328-5.024 5.024q-8.288 8.544-17.056 17.056c-1.696 1.632-3.296 3.424-5.024 5.024l92.672 92.672c3.104 3.104 4.992 7.36 4.992 12.064s-1.92 8.992-4.992 12.064l-22.016 21.984h95.328z" />
<glyph unicode="&#xe905;" glyph-name="ALLOCATION-KEY-G" d="M1006.944 960h-153.6c0 0 0 0 0 0-9.44 0-17.056-7.648-17.056-17.056 0-4.704 1.92-8.992 4.992-12.064v0l39.136-39.136-82.528-82.656c-77.696 62.176-177.376 99.776-285.856 99.776s-208.192-37.6-286.784-100.48l0.928 0.704-82.528 82.656 39.136 39.136c3.104 3.104 4.992 7.36 4.992 12.064 0 9.44-7.648 17.056-17.056 17.056 0 0 0 0 0 0h-153.6c-9.44 0-17.056-7.648-17.056-17.056v0-153.6c0 0 0 0 0 0 0-9.44 7.648-17.056 17.056-17.056 4.704 0 8.992 1.92 12.064 4.992v0l39.136 39.136 82.656-82.528c-62.176-77.696-99.776-177.376-99.776-285.856s37.6-208.192 100.48-286.784l-0.704 0.928-82.656-82.528-39.136 39.136c-3.104 3.104-7.36 4.992-12.064 4.992-9.44 0-17.056-7.648-17.056-17.056 0 0 0 0 0 0v0-153.6c0-9.44 7.648-17.056 17.056-17.056h153.6c0 0 0 0 0 0 9.44 0 17.056 7.648 17.056 17.056 0 4.704-1.92 8.992-4.992 12.064v0l-39.136 39.136 82.528 82.656c77.696-62.176 177.376-99.776 285.856-99.776s208.192 37.6 286.784 100.48l-0.928-0.704 82.528-82.656-39.136-39.136c-3.104-3.104-4.992-7.36-4.992-12.064 0-9.44 7.648-17.056 17.056-17.056 0 0 0 0 0 0h153.6c9.44 0 17.056 7.648 17.056 17.056v0 153.6c0 0 0 0 0 0 0 9.44-7.648 17.056-17.056 17.056-4.704 0-8.992-1.92-12.064-4.992v0l-39.136-39.136-82.656 82.528c62.176 77.696 99.776 177.376 99.776 285.856s-37.6 208.192-100.48 286.784l0.704-0.928 82.656 82.528 39.136-39.136c3.104-3.104 7.36-4.992 12.064-4.992 9.44 0 17.056 7.648 17.056 17.056 0 0 0 0 0 0v0 153.6c0 9.44-7.648 17.056-17.056 17.056v0zM172.96 759.936l-92.64 92.672c-3.104 3.104-7.36 4.992-12.064 4.992s-8.992-1.92-12.064-4.992v0l-22.048-22.048v95.328h95.328l-22.048-22.048c-3.104-3.104-4.992-7.36-4.992-12.064s1.92-8.992 4.992-12.064l92.672-92.64c-1.76-1.632-3.328-3.424-5.024-5.024q-8.544-8.288-17.056-17.056c-1.568-1.664-3.36-3.232-4.992-4.992zM200.032 108.96l-92.64-92.64c-3.104-3.104-4.992-7.36-4.992-12.064s1.92-8.992 4.992-12.064v0l22.048-22.048h-95.328v95.328l22.048-22.048c3.104-3.104 7.36-4.992 12.064-4.992s8.992 1.92 12.064 4.992v0l92.672 92.672c1.632-1.76 3.424-3.328 5.024-5.024q8.288-8.544 17.056-17.056c1.632-1.568 3.2-3.36 4.96-4.992zM850.976 136.032l92.672-92.672c3.104-3.104 7.36-4.992 12.064-4.992s8.992 1.92 12.064 4.992v0l22.048 22.048v-95.264h-95.328l22.048 22.048c3.104 3.104 4.992 7.36 4.992 12.064s-1.92 8.992-4.992 12.064v0l-92.672 92.672c1.76 1.632 3.328 3.424 5.024 5.024q8.544 8.288 17.056 17.056c1.568 1.632 3.36 3.2 4.992 4.96zM833.12 167.52q-7.712-8.8-15.872-17.056-3.712-3.808-7.52-7.52-8.544-8.16-17.056-15.776c-74.496-65.6-172.864-105.632-280.576-105.632s-206.080 40.032-281.056 106.048l0.48-0.416c-5.856 5.12-11.552 10.368-17.056 15.776q-3.808 3.712-7.52 7.52-8.192 8.544-15.872 17.056c-65.536 74.464-105.536 172.8-105.536 280.48s40 206.016 105.952 280.928l-0.416-0.48q7.712 8.8 15.872 17.056 3.712 3.808 7.52 7.52 8.544 8.16 17.056 15.776c74.496 65.6 172.864 105.632 280.576 105.632s206.080-40.032 281.056-106.048l-0.48 0.416c5.856-5.12 11.552-10.368 17.056-15.776q3.808-3.712 7.52-7.52 8.192-8.544 15.872-17.056c65.536-74.464 105.536-172.8 105.536-280.48s-40-206.016-105.952-280.928l0.416 0.48zM989.856 830.56l-22.048 22.048c-3.104 3.104-7.36 4.992-12.064 4.992s-8.992-1.92-12.064-4.992l-92.64-92.672c-1.632 1.76-3.424 3.328-5.024 5.024q-8.288 8.544-17.056 17.056c-1.696 1.632-3.296 3.424-5.024 5.024l92.672 92.672c3.104 3.104 4.992 7.36 4.992 12.064s-1.92 8.992-4.992 12.064l-22.016 21.984h95.328z" />
<glyph unicode="&#xe906;" glyph-name="Carry-Over" d="M657.568-17.056l-34.144-46.944-188.192 136.544 149.024 175.872 44.256-37.504-81.92-96.672c172.608 14.176 307.36 157.76 307.36 332.8 0 105.504-48.928 199.584-125.344 260.768l-0.672 0.512-22.688 18.080 36.192 45.536 22.688-18.080c90.432-72.416 147.84-182.816 147.84-306.624 0-203.968-155.776-371.52-354.88-390.208l-1.568-0.128zM521.376 839.040c-0.512 0-1.056 0-1.568 0-0.032 0-0.096 0-0.128 0-216.448 0-391.936-175.488-391.936-391.936 0-137.376 70.656-258.24 177.632-328.224l1.504-0.928 24.32-15.776 31.584 48.672-24.32 15.776c-92.416 60.416-152.64 163.392-152.64 280.448 0 184.448 149.504 333.952 333.952 333.952 0.032 0 0.064 0 0.128 0v0c4.992 0 9.952 0 14.88-0.384l-90.144-94.976 42.016-39.968 158.816 167.008-180 147.296-36.736-44.896z" />
<glyph unicode="&#xe907;" glyph-name="Carry-Over-G" d="M657.568-17.056l-34.144-46.944-188.192 136.544 149.024 175.872 44.256-37.504-81.92-96.672c172.608 14.176 307.36 157.76 307.36 332.8 0 105.504-48.928 199.584-125.344 260.768l-0.672 0.512-22.688 18.080 36.192 45.536 22.688-18.080c90.432-72.416 147.84-182.816 147.84-306.624 0-203.968-155.776-371.52-354.88-390.208l-1.568-0.128zM521.376 839.040c-0.512 0-1.056 0-1.568 0-0.032 0-0.096 0-0.128 0-216.448 0-391.936-175.488-391.936-391.936 0-137.376 70.656-258.24 177.632-328.224l1.504-0.928 24.32-15.776 31.584 48.672-24.32 15.776c-92.416 60.416-152.64 163.392-152.64 280.448 0 184.448 149.504 333.952 333.952 333.952 0.032 0 0.064 0 0.128 0v0c4.992 0 9.952 0 14.88-0.384l-90.144-94.976 42.016-39.968 158.816 167.008-180 147.296-36.736-44.896z" />
<glyph unicode="&#xe908;" glyph-name="COMMODITY-IMPACT" d="M321.888 787.488h722.816v-60.224h-722.816v60.224zM321.888 486.304h722.816v-60.224h-722.816v60.224zM321.888 185.12h722.816v-60.224h-722.816v60.224zM120.896 869.632c-66.784 0-120.928-54.144-120.928-120.96s54.144-120.96 120.96-120.96 120.96 54.144 120.96 120.96c0 33.408-13.536 63.648-35.424 85.536v0c-21.824 21.888-52 35.424-85.312 35.424-0.064 0-0.16 0-0.224 0v0zM153.792 715.808c-8.544-8.16-20.128-13.184-32.896-13.184s-24.352 5.024-32.896 13.184l0.032-0.032c-8.416 8.416-13.6 20.032-13.6 32.864 0 25.696 20.832 46.496 46.496 46.496s46.496-20.832 46.496-46.496c0-12.832-5.216-24.448-13.6-32.864v0zM120.896 568.48c-66.784 0-120.928-54.144-120.928-120.96s54.144-120.96 120.96-120.96 120.96 54.144 120.96 120.96c0 33.408-13.536 63.648-35.424 85.536v0c-21.824 21.888-52 35.424-85.312 35.424-0.064 0-0.16 0-0.224 0v0zM153.792 414.624c-8.544-8.16-20.128-13.184-32.896-13.184s-24.352 5.024-32.896 13.184l0.032-0.032c-8.416 8.416-13.6 20.032-13.6 32.864 0 25.696 20.832 46.496 46.496 46.496s46.496-20.832 46.496-46.496c0-12.832-5.216-24.448-13.6-32.864v0zM120.896 267.296c-66.784 0-120.928-54.144-120.928-120.96s54.144-120.96 120.96-120.96 120.96 54.144 120.96 120.96c0 33.408-13.536 63.648-35.424 85.536v0c-21.824 21.888-52 35.424-85.312 35.424-0.064 0-0.16 0-0.224 0v0zM153.792 113.44c-8.544-8.16-20.128-13.184-32.896-13.184s-24.352 5.024-32.896 13.184l0.032-0.032c-8.416 8.416-13.6 20.032-13.6 32.864 0 25.696 20.832 46.496 46.496 46.496s46.496-20.832 46.496-46.496c0-12.832-5.216-24.448-13.6-32.864v0z" />
<glyph unicode="&#xe909;" glyph-name="COMMODITY-IMPACT-G" d="M321.888 787.488h722.816v-60.224h-722.816v60.224zM321.888 486.304h722.816v-60.224h-722.816v60.224zM321.888 185.12h722.816v-60.224h-722.816v60.224zM120.896 869.632c-66.784 0-120.928-54.144-120.928-120.96s54.144-120.96 120.96-120.96 120.96 54.144 120.96 120.96c0 33.408-13.536 63.648-35.424 85.536v0c-21.824 21.888-52 35.424-85.312 35.424-0.064 0-0.16 0-0.224 0v0zM153.792 715.808c-8.544-8.16-20.128-13.184-32.896-13.184s-24.352 5.024-32.896 13.184l0.032-0.032c-8.416 8.416-13.6 20.032-13.6 32.864 0 25.696 20.832 46.496 46.496 46.496s46.496-20.832 46.496-46.496c0-12.832-5.216-24.448-13.6-32.864v0zM120.896 568.48c-66.784 0-120.928-54.144-120.928-120.96s54.144-120.96 120.96-120.96 120.96 54.144 120.96 120.96c0 33.408-13.536 63.648-35.424 85.536v0c-21.824 21.888-52 35.424-85.312 35.424-0.064 0-0.16 0-0.224 0v0zM153.792 414.624c-8.544-8.16-20.128-13.184-32.896-13.184s-24.352 5.024-32.896 13.184l0.032-0.032c-8.416 8.416-13.6 20.032-13.6 32.864 0 25.696 20.832 46.496 46.496 46.496s46.496-20.832 46.496-46.496c0-12.832-5.216-24.448-13.6-32.864v0zM120.896 267.296c-66.784 0-120.928-54.144-120.928-120.96s54.144-120.96 120.96-120.96 120.96 54.144 120.96 120.96c0 33.408-13.536 63.648-35.424 85.536v0c-21.824 21.888-52 35.424-85.312 35.424-0.064 0-0.16 0-0.224 0v0zM153.792 113.44c-8.544-8.16-20.128-13.184-32.896-13.184s-24.352 5.024-32.896 13.184l0.032-0.032c-8.416 8.416-13.6 20.032-13.6 32.864 0 25.696 20.832 46.496 46.496 46.496s46.496-20.832 46.496-46.496c0-12.832-5.216-24.448-13.6-32.864v0z" />
<glyph unicode="&#xe90a;" glyph-name="CONTRACTS" d="M946.944-84.736l-1.376 795.712-255.072 248.672h-561.216c-66.208-2.464-49.248 15.68-51.2-55.968l-1.44-988.16c0.768-0.96 869.536 0.864 870.304-0.256zM889.44-30.016h-755.104v934.912h454.080v-293.44h300.992zM644.544 666.304v243.776l250.016-243.776zM433.344 512.192h361.888v-54.624h-361.888v54.624zM228.544 362.592h566.688v-54.624h-566.688v54.624zM228.544 213.504h566.688v-54.624h-566.688v54.624zM325.056 448v0l-43.168 197.696-0.576-1.024-43.168-193.888-43.616 50.272 36.608 165.024-6.72-3.488 1.12 17.856-16.64-4.608 4.448 17.312-17.216-1.12 7.616 16.032-17.088 2.368 10.496 14.080-16.288 5.888 12.96 11.776-14.944 8.96 14.944 9.216-12.96 11.776 16.32 5.728-10.56 14.080 17.088 2.304-7.616 16.064 17.216-1.184-4.448 17.312 16.64-4.672-1.12 17.92 15.36-7.936 2.368 17.76 13.568-10.944 5.632 16.992 11.36-13.312 8.608 15.36 8.608-15.36 11.36 13.312 5.632-16.992 13.632 10.944 2.24-17.504 15.36 7.872-1.024-18.112 16.64 4.608-4.512-17.248 17.216 1.184-7.616-16.064 17.088-2.304-10.496-14.24 16.32-5.728-12.96-11.776 14.912-9.056-14.944-8.96 12.96-11.84-16.288-5.824 10.496-14.176-17.088-2.368 7.616-16.032-17.216 1.12 4.448-17.312-16.576 4.704 1.12-17.856-6.304 3.264 36.928-169.376-43.776-48.48zM281.344 806.4c-28.288 0-51.2-22.912-51.2-51.2s22.912-51.2 51.2-51.2c28.288 0 51.2 22.912 51.2 51.2v0c0 28.288-22.912 51.2-51.2 51.2v0z" />
<glyph unicode="&#xe90b;" glyph-name="CONTRACTS-G" d="M946.944-84.736l-1.376 795.712-255.072 248.672h-561.216c-66.208-2.464-49.248 15.68-51.2-55.968l-1.44-988.16c0.768-0.96 869.536 0.864 870.304-0.256zM889.44-30.016h-755.104v934.912h454.080v-293.44h300.992zM644.544 666.304v243.776l250.016-243.776zM433.344 512.192h361.888v-54.624h-361.888v54.624zM228.544 362.592h566.688v-54.624h-566.688v54.624zM228.544 213.504h566.688v-54.624h-566.688v54.624zM325.056 448v0l-43.168 197.696-0.576-1.024-43.168-193.888-43.616 50.272 36.608 165.024-6.72-3.488 1.12 17.856-16.64-4.608 4.448 17.312-17.216-1.12 7.616 16.032-17.088 2.368 10.496 14.080-16.288 5.888 12.96 11.776-14.944 8.96 14.944 9.216-12.96 11.776 16.32 5.728-10.56 14.080 17.088 2.304-7.616 16.064 17.216-1.184-4.448 17.312 16.64-4.672-1.12 17.92 15.36-7.936 2.368 17.76 13.568-10.944 5.632 16.992 11.36-13.312 8.608 15.36 8.608-15.36 11.36 13.312 5.632-16.992 13.632 10.944 2.24-17.504 15.36 7.872-1.024-18.112 16.64 4.608-4.512-17.248 17.216 1.184-7.616-16.064 17.088-2.304-10.496-14.24 16.32-5.728-12.96-11.776 14.912-9.056-14.944-8.96 12.96-11.84-16.288-5.824 10.496-14.176-17.088-2.368 7.616-16.032-17.216 1.12 4.448-17.312-16.576 4.704 1.12-17.856-6.304 3.264 36.928-169.376-43.776-48.48zM281.344 806.4c-28.288 0-51.2-22.912-51.2-51.2s22.912-51.2 51.2-51.2c28.288 0 51.2 22.912 51.2 51.2v0c0 28.288-22.912 51.2-51.2 51.2v0z" />
<glyph unicode="&#xe90c;" glyph-name="Copy" d="M705.408-70.432h-613.664v826.496h613.664zM133.024-29.28h531.232v744.192h-531.424zM711.648-76.8h-626.272v839.264h626.272zM98.144-64h600.736v813.664h-600.736zM670.56-35.68h-544.032v756.736h544.032zM139.264-22.88h518.496v731.36h-518.496zM914.016 89.888h-156.96v41.12h115.84v781.472h-550.4v-107.36h-41.12v148.448h632.832zM920.416 83.456h-169.76v53.984h115.872v768.672h-537.6v-107.36h-53.888v161.248h645.6zM763.424 96.256h144.224v850.944h-620.064v-135.648h28.32v107.36h563.424v-794.336h-115.872z" />
<glyph unicode="&#xe90d;" glyph-name="notification" horiz-adv-x="970" d="M965.47 115.523c-15.522-29.211-60.739-29.211-80.034-29.211h-232.232c-0.054-83.052-75.722-150.312-169.014-150.312s-168.96 67.261-169.014 150.312h-227.975c-30.397 0-67.153 3.341-81.866 29.373-16.653 29.534 8.084 100.406 39.397 137.863 34.816 41.661 89.789 136.677 89.789 193.536v184.051c0 158.612 178.661 328.92 349.076 328.92 170.307 0 350.1-170.307 350.1-328.92v-184.051c0-57.829 50.607-155.756 87.579-195.8 34.816-37.619 59.931-106.119 44.194-135.761zM484.136-4.931c56.643 0 102.616 40.852 102.669 91.244h-205.339c0.108-50.392 46.026-91.244 102.669-91.244zM869.16 213.181c-43.439 47.050-102.939 154.57-102.939 233.903v184.051c0 125.521-149.504 268.881-282.624 268.881-133.174 0-281.654-143.36-281.654-268.881v-184.051c0-76.692-64.458-183.134-103.101-229.322-7.815-9.324-22.043-33.199-23.929-71.141 3.395-0.162 7.437-0.323 12.288-0.323h798.235c2.425 0 4.581 0.054 6.629 0.108 4.797 30.828-15.576 58.853-22.905 66.776z" />
<glyph unicode="&#xe90e;" glyph-name="Copy-G1" d="M705.408-70.432h-613.664v826.496h613.664zM133.024-29.28h531.232v744.192h-531.424zM711.648-76.8h-626.272v839.264h626.272zM98.144-64h600.736v813.664h-600.736zM670.56-35.68h-544.032v756.736h544.032zM139.264-22.88h518.496v731.36h-518.496zM914.016 89.888h-156.96v41.12h115.84v781.472h-550.4v-107.36h-41.12v148.448h632.832zM920.416 83.456h-169.76v53.984h115.872v768.672h-537.6v-107.36h-53.888v161.248h645.6zM763.424 96.256h144.224v850.944h-620.064v-135.648h28.32v107.36h563.424v-794.336h-115.872z" />
<glyph unicode="&#xe90f;" glyph-name="dashboard1" d="M1.024 14.72l-1.024 859.936c0.512-0.48 1027.328-2.592 1027.328-2.912l-1.056-857.056c0.384 2.016-1024.672-1.312-1025.248 0zM972.32 70.4v746.656h-916.192v-746.656zM195.936 220.96l-24.16 24.16 204.8 204.8 24.16-24.16zM389.152 373.664l24.16 24.16 153.6-153.6-24.16-24.16zM582.56 186.080l-24.032 24.032 273.056 273.056 24.16-24.16zM709.472 709.984h153.6v-51.2h-153.6v51.2zM437.472 709.984h153.6v-51.2h-153.6v51.2zM165.472 709.984h153.6v-51.2h-153.6v51.2z" />
<glyph unicode="&#xe910;" glyph-name="dashboard-G" d="M1.024 14.72l-1.024 859.936c0.512-0.48 1027.328-2.592 1027.328-2.912l-1.056-857.056c0.384 2.016-1024.672-1.312-1025.248 0zM972.32 70.4v746.656h-916.192v-746.656zM195.936 220.96l-24.16 24.16 204.8 204.8 24.16-24.16zM389.152 373.664l24.16 24.16 153.6-153.6-24.16-24.16zM582.56 186.080l-24.032 24.032 273.056 273.056 24.16-24.16zM709.472 709.984h153.6v-51.2h-153.6v51.2zM437.472 709.984h153.6v-51.2h-153.6v51.2zM165.472 709.984h153.6v-51.2h-153.6v51.2zM74.112 17.056c-38.016 3.328-68.128 33.184-71.84 70.784l-0.032 0.32v711.136c0 34.336 19.168 71.072 53.888 71.072h907.168c0.128 0 0.256 0 0.384 0 34.4 0 62.336-27.776 62.56-62.144v-737.856c0-34.144-37.152-53.344-71.904-53.344zM56.16 70.4h916.224v746.656h-916.224zM546.432 207.456l287.456 284.448 25.6-25.12-287.616-284.512zM384.768 377.856l25.6 25.12 161.504-159.776-25.6-25.12zM169.376 243.2l215.584 213.344 25.6-25.12-215.584-213.344zM703.072 657.056v53.344h161.696v-53.344zM433.632 657.056v53.344h161.664v-53.344zM164.128 657.056v53.344h161.664v-53.344z" />
<glyph unicode="&#xe911;" glyph-name="Delete" d="M269.76-56.128c-61.024 0.16-110.432 49.696-110.432 110.752 0 0.128 0 0.288 0 0.416v-0.032 721.248h-65.76c-11.264 0-20.416 9.12-20.416 20.416s9.12 20.416 20.416 20.416v0h215.456v54.464c0.608 48.992 40.448 88.48 89.536 88.48 0.032 0 0.096 0 0.128 0h210.912c0 0 0.032 0 0.032 0 49.056 0 88.928-39.488 89.504-88.416v-54.496h215.456c11.232-0.064 20.288-9.184 20.288-20.416 0-11.296-9.152-20.416-20.416-20.416-0.032 0-0.096 0-0.128 0h-65.824v-721.248c0-0.128 0-0.256 0-0.416 0-61.056-49.408-110.56-110.432-110.752v0zM200.256 55.008c0-0.16 0-0.352 0-0.544 0-38.432 31.072-69.6 69.472-69.792h468.544c38.432 0.256 69.472 31.456 69.472 69.92 0 0.128 0 0.288 0 0.416v-0.032 721.248h-607.648zM349.792 871.52v-54.432h308.48v54.432c-0.608 26.368-22.112 47.552-48.576 47.552-0.064 0-0.096 0-0.16 0h-210.912c-0.064 0-0.16 0-0.224 0-26.464 0-48-21.152-48.576-47.488v-0.064zM603.808 160.928v441.152c0 11.264 9.12 20.416 20.416 20.416s20.416-9.152 20.416-20.416v-441.152c0-11.264-9.12-20.416-20.416-20.416s-20.416 9.12-20.416 20.416v0zM363.424 160.928v441.152c0 11.264 9.152 20.416 20.416 20.416s20.416-9.152 20.416-20.416v-441.152c0-11.264-9.152-20.416-20.416-20.416s-20.416 9.12-20.416 20.416v0z" />
<glyph unicode="&#xe912;" glyph-name="Delete-G" d="M269.76-56.128c-61.024 0.16-110.432 49.696-110.432 110.752 0 0.128 0 0.288 0 0.416v-0.032 721.248h-65.76c-11.264 0-20.416 9.12-20.416 20.416s9.12 20.416 20.416 20.416v0h215.456v54.464c0.608 48.992 40.448 88.48 89.536 88.48 0.032 0 0.096 0 0.128 0h210.912c0 0 0.032 0 0.032 0 49.056 0 88.928-39.488 89.504-88.416v-54.496h215.456c11.232-0.064 20.288-9.184 20.288-20.416 0-11.296-9.152-20.416-20.416-20.416-0.032 0-0.096 0-0.128 0h-65.824v-721.248c0-0.128 0-0.256 0-0.416 0-61.056-49.408-110.56-110.432-110.752v0zM200.256 55.008c0-0.16 0-0.352 0-0.544 0-38.432 31.072-69.6 69.472-69.792h468.544c38.432 0.256 69.472 31.456 69.472 69.92 0 0.128 0 0.288 0 0.416v-0.032 721.248h-607.648zM349.792 871.52v-54.432h308.48v54.432c-0.608 26.368-22.112 47.552-48.576 47.552-0.064 0-0.096 0-0.16 0h-210.912c-0.064 0-0.16 0-0.224 0-26.464 0-48-21.152-48.576-47.488v-0.064zM603.808 160.928v441.152c0 11.264 9.12 20.416 20.416 20.416s20.416-9.152 20.416-20.416v-441.152c0-11.264-9.12-20.416-20.416-20.416s-20.416 9.12-20.416 20.416v0zM363.424 160.928v441.152c0 11.264 9.152 20.416 20.416 20.416s20.416-9.152 20.416-20.416v-441.152c0-11.264-9.152-20.416-20.416-20.416s-20.416 9.12-20.416 20.416v0z" />
<glyph unicode="&#xe913;" glyph-name="Download" d="M72.32 448.576h-72.32v-330.016c3.744-56.896 50.816-101.6 108.32-101.6 3.456 0 6.88 0.16 10.24 0.48l-0.416-0.032h793.184c0.544 0 1.216-0.032 1.888-0.032 53.888 0 97.568 43.68 97.568 97.568 0 3.84-0.224 7.616-0.64 11.328l0.032-0.448v320.352h-72.16v-325.248c0 0 0-0.032 0-0.032 0-19.936-16.16-36.096-36.096-36.096-0.032 0-0.064 0-0.096 0h-786.112s-43.392 0-43.392 40.96zM535.296 878.080h-67.584v-517.824l-142.24 139.68-48.224-50.56 176.128-178.208c12.992-11.84 30.368-19.104 49.408-19.104s36.416 7.264 49.472 19.168l-0.064-0.064 178.432 178.208-53.152 48.16-137.408-137.312z" />
<glyph unicode="&#xe914;" glyph-name="Download-G" d="M72.32 448.576h-72.32v-330.016c3.744-56.896 50.816-101.6 108.32-101.6 3.456 0 6.88 0.16 10.24 0.48l-0.416-0.032h793.184c0.544 0 1.216-0.032 1.888-0.032 53.888 0 97.568 43.68 97.568 97.568 0 3.84-0.224 7.616-0.64 11.328l0.032-0.448v320.352h-72.16v-325.248c0 0 0-0.032 0-0.032 0-19.936-16.16-36.096-36.096-36.096-0.032 0-0.064 0-0.096 0h-786.112s-43.392 0-43.392 40.96zM535.296 878.080h-67.584v-517.824l-142.24 139.68-48.224-50.56 176.128-178.208c12.992-11.84 30.368-19.104 49.408-19.104s36.416 7.264 49.472 19.168l-0.064-0.064 178.432 178.208-53.152 48.16-137.408-137.312z" />
<glyph unicode="&#xe915;" glyph-name="Edit" horiz-adv-x="992" d="M893.792 5.184h-828.672v828.672h467.616v59.2h-532.704v-952.96h952.96v455.776h-59.2v-390.656zM592.384 378.912c-5.92 0-11.84 0-17.76 5.92l-106.528 88.8c-11.84 5.92-11.84 23.68 0 35.52l361.056 432.096c5.92 11.84 23.68 11.84 35.52 0l106.528-88.8c5.92-5.92 5.92-11.84 5.92-17.76s0-11.84-5.92-17.76l-361.056-432.096c-5.92 0-11.84-5.92-17.76-5.92 0 0 0 0 0 0zM515.424 497.312l71.040-59.2 331.456 396.576-71.040 59.2-331.456-396.576zM432.576 301.984c-5.92 0-11.84 0-17.76 5.92s-11.84 17.76-5.92 23.68l47.36 159.808c5.92 11.84 17.76 17.76 29.6 17.76 11.84-5.92 17.76-17.76 17.76-29.6l-29.6-112.448 112.448 53.28c11.84 5.92 23.68 0 29.6-11.84s0-23.68-11.84-29.6l-159.808-76.96c-5.92 5.92-5.92 0-11.84 0z" />
<glyph unicode="&#xe916;" glyph-name="Edit-G" horiz-adv-x="992" d="M893.792 5.184h-828.672v828.672h467.616v59.2h-532.704v-952.96h952.96v455.776h-59.2v-390.656zM592.384 378.912c-5.92 0-11.84 0-17.76 5.92l-106.528 88.8c-11.84 5.92-11.84 23.68 0 35.52l361.056 432.096c5.92 11.84 23.68 11.84 35.52 0l106.528-88.8c5.92-5.92 5.92-11.84 5.92-17.76s0-11.84-5.92-17.76l-361.056-432.096c-5.92 0-11.84-5.92-17.76-5.92 0 0 0 0 0 0zM515.424 497.312l71.040-59.2 331.456 396.576-71.040 59.2-331.456-396.576zM432.576 301.984c-5.92 0-11.84 0-17.76 5.92s-11.84 17.76-5.92 23.68l47.36 159.808c5.92 11.84 17.76 17.76 29.6 17.76 11.84-5.92 17.76-17.76 17.76-29.6l-29.6-112.448 112.448 53.28c11.84 5.92 23.68 0 29.6-11.84s0-23.68-11.84-29.6l-159.808-76.96c-5.92 5.92-5.92 0-11.84 0z" />
<glyph unicode="&#xe917;" glyph-name="FDD" horiz-adv-x="1056" d="M42.528 745.344l-24.544-27.84c22.464-18.368 50.496-30.752 81.216-34.336l0.736-0.064v-22.944h21.28v22.944c40.96 1.6 75.392 22.944 75.392 62.24 0 42.592-34.4 55.712-75.392 63.904v0 60.64c17.984-1.92 34.176-8.384 47.776-18.24l-0.288 0.192 21.312 27.904c-20.096 12.64-44.16 20.928-69.952 22.912l-0.544 0.032v16.384h-19.584v-14.752c-1.6 0.128-3.424 0.192-5.312 0.192-36.32 0-66.016-28.192-68.448-63.904v-0.224c0-40.96 32.8-54.048 73.696-62.24v-60.64c-22.176 4.448-41.6 14.24-57.504 27.968l0.16-0.128zM121.184 773.056c18.048-4.896 34.4-11.456 34.4-29.504 0-16.352-18.048-24.544-34.4-26.048zM67.136 845.312c0 16.352 16.352 24.544 32.8 26.080v-53.952c-18.048 4.96-32.8 9.856-32.8 27.904zM1.632 412.672c2.848-5.28 8.32-8.8 14.624-8.8 3.072 0 5.92 0.832 8.384 2.272l-0.064-0.032 181.888 101.6c1.632 1.6 4.896 3.296 6.56 4.896l245.568 388.416 272-191.68c2.72-1.824 6.048-2.912 9.632-2.912 4.512 0 8.608 1.728 11.712 4.544v0l201.888 193.344v-39.296c0-9.056 7.328-16.384 16.384-16.384s16.384 7.328 16.384 16.384v0 78.656c0 0.224 0.032 0.48 0.032 0.736 0 8.64-7.008 15.648-15.648 15.648-0.256 0-0.512 0-0.768-0.032h-78.944c-0.224 0-0.48 0.032-0.736 0.032-8.64 0-15.648-7.008-15.648-15.648 0-0.256 0-0.512 0.032-0.8v0.032c0-0.224-0.032-0.48-0.032-0.736 0-8.64 7.008-15.648 15.648-15.648 0.256 0 0.512 0 0.768 0.032h39.264l-191.68-183.488-276.864 194.912c-2.912 2.176-6.56 3.456-10.528 3.456-0.896 0-1.792-0.064-2.656-0.192h0.096c-4.16-0.8-7.616-3.2-9.824-6.528l-0.032-0.064-253.952-401.376-176.928-99.936c-4.992-2.784-8.32-8.064-8.32-14.112 0-2.688 0.64-5.184 1.792-7.424l-0.032 0.096zM1032.128-32.864h-1.6v730.72c0 0.224 0.032 0.48 0.032 0.768 0 8.64-7.008 15.648-15.648 15.648-0.352 0-0.704 0-1.056-0.032h-101.312c-0.224 0-0.48 0.032-0.736 0.032-8.64 0-15.648-7.008-15.648-15.648 0-0.256 0-0.512 0.032-0.768v0.032-729.056h-121.312v491.456c0 0.224 0.032 0.48 0.032 0.736 0 8.64-7.008 15.648-15.648 15.648-0.256 0-0.512 0-0.768-0.032h-101.568c-0.224 0-0.48 0.032-0.736 0.032-8.64 0-15.648-7.008-15.648-15.648 0-0.256 0-0.512 0.032-0.768v0.032-493.184h-121.248v730.784c0 0.224 0.032 0.48 0.032 0.736 0 8.64-7.008 15.648-15.648 15.648-0.224 0-0.448 0-0.672 0h-101.664c-0.224 0-0.48 0.032-0.736 0.032-8.64 0-15.648-7.008-15.648-15.648 0-0.256 0-0.512 0.032-0.768v0.032-729.056h-121.248v384.96c0 0.224 0.032 0.48 0.032 0.736 0 8.64-7.008 15.648-15.648 15.648-0.256 0-0.512 0-0.768-0.032h-99.936c-0.224 0-0.48 0.032-0.736 0.032-8.64 0-15.648-7.008-15.648-15.648 0-0.256 0-0.512 0.032-0.768v0.032-384.96h-101.6c-9.056 0-16.384-7.328-16.384-16.384s7.328-16.384 16.384-16.384v0h1002.72c0.224 0 0.48-0.032 0.736-0.032 8.64 0 15.648 7.008 15.648 15.648 0 0.256 0 0.512-0.032 0.768v-0.032c-0.16 8.224-6.88 14.816-15.104 14.816-0.448 0-0.864-0.032-1.312-0.064h0.064zM163.776-32.864v370.112h68.8v-368.448h-68.8zM417.76-32.864v714.144h68.8v-712.48h-68.864zM673.184-32.864v476.768h68.8v-476.768zM928.608-32.864v714.144h68.8v-712.48h-68.48z" />
<glyph unicode="&#xe918;" glyph-name="FDD-G" horiz-adv-x="1056" d="M42.528 745.344l-24.544-27.84c22.464-18.368 50.496-30.752 81.216-34.336l0.736-0.064v-22.944h21.28v22.944c40.96 1.6 75.392 22.944 75.392 62.24 0 42.592-34.4 55.712-75.392 63.904v0 60.64c17.984-1.92 34.176-8.384 47.776-18.24l-0.288 0.192 21.312 27.904c-20.096 12.64-44.16 20.928-69.952 22.912l-0.544 0.032v16.384h-19.584v-14.752c-1.6 0.128-3.424 0.192-5.312 0.192-36.32 0-66.016-28.192-68.448-63.904v-0.224c0-40.96 32.8-54.048 73.696-62.24v-60.64c-22.176 4.448-41.6 14.24-57.504 27.968l0.16-0.128zM121.184 773.056c18.048-4.896 34.4-11.456 34.4-29.504 0-16.352-18.048-24.544-34.4-26.048zM67.136 845.312c0 16.352 16.352 24.544 32.8 26.080v-53.952c-18.048 4.96-32.8 9.856-32.8 27.904zM1.632 412.672c2.848-5.28 8.32-8.8 14.624-8.8 3.072 0 5.92 0.832 8.384 2.272l-0.064-0.032 181.888 101.6c1.632 1.6 4.896 3.296 6.56 4.896l245.568 388.416 272-191.68c2.72-1.824 6.048-2.912 9.632-2.912 4.512 0 8.608 1.728 11.712 4.544v0l201.888 193.344v-39.296c0-9.056 7.328-16.384 16.384-16.384s16.384 7.328 16.384 16.384v0 78.656c0 0.224 0.032 0.48 0.032 0.736 0 8.64-7.008 15.648-15.648 15.648-0.256 0-0.512 0-0.768-0.032h-78.944c-0.224 0-0.48 0.032-0.736 0.032-8.64 0-15.648-7.008-15.648-15.648 0-0.256 0-0.512 0.032-0.8v0.032c0-0.224-0.032-0.48-0.032-0.736 0-8.64 7.008-15.648 15.648-15.648 0.256 0 0.512 0 0.768 0.032h39.264l-191.68-183.488-276.864 194.912c-2.912 2.176-6.56 3.456-10.528 3.456-0.896 0-1.792-0.064-2.656-0.192h0.096c-4.16-0.8-7.616-3.2-9.824-6.528l-0.032-0.064-253.952-401.376-176.928-99.936c-4.992-2.784-8.32-8.064-8.32-14.112 0-2.688 0.64-5.184 1.792-7.424l-0.032 0.096zM1032.128-32.864h-1.6v730.72c0 0.224 0.032 0.48 0.032 0.768 0 8.64-7.008 15.648-15.648 15.648-0.352 0-0.704 0-1.056-0.032h-101.312c-0.224 0-0.48 0.032-0.736 0.032-8.64 0-15.648-7.008-15.648-15.648 0-0.256 0-0.512 0.032-0.768v0.032-729.056h-121.312v491.456c0 0.224 0.032 0.48 0.032 0.736 0 8.64-7.008 15.648-15.648 15.648-0.256 0-0.512 0-0.768-0.032h-101.568c-0.224 0-0.48 0.032-0.736 0.032-8.64 0-15.648-7.008-15.648-15.648 0-0.256 0-0.512 0.032-0.768v0.032-493.184h-121.248v730.784c0 0.224 0.032 0.48 0.032 0.736 0 8.64-7.008 15.648-15.648 15.648-0.224 0-0.448 0-0.672 0h-101.664c-0.224 0-0.48 0.032-0.736 0.032-8.64 0-15.648-7.008-15.648-15.648 0-0.256 0-0.512 0.032-0.768v0.032-729.056h-121.248v384.96c0 0.224 0.032 0.48 0.032 0.736 0 8.64-7.008 15.648-15.648 15.648-0.256 0-0.512 0-0.768-0.032h-99.936c-0.224 0-0.48 0.032-0.736 0.032-8.64 0-15.648-7.008-15.648-15.648 0-0.256 0-0.512 0.032-0.768v0.032-384.96h-101.6c-9.056 0-16.384-7.328-16.384-16.384s7.328-16.384 16.384-16.384v0h1002.72c0.224 0 0.48-0.032 0.736-0.032 8.64 0 15.648 7.008 15.648 15.648 0 0.256 0 0.512-0.032 0.768v-0.032c-0.16 8.224-6.88 14.816-15.104 14.816-0.448 0-0.864-0.032-1.312-0.064h0.064zM163.776-32.864v370.112h68.8v-368.448h-68.8zM417.76-32.864v714.144h68.8v-712.48h-68.864zM673.184-32.864v476.768h68.8v-476.768zM928.608-32.864v714.144h68.8v-712.48h-68.48z" />
<glyph unicode="&#xe919;" glyph-name="Feedback" d="M0.032 447.968c0 282.784 229.216 512 512 512s512-229.216 512-512c0-282.784-229.216-512-512-512v0c-282.784 0-512 229.216-512 512v0zM48.832 447.968c0.032-255.808 207.392-463.168 463.232-463.168s463.232 207.392 463.232 463.232-207.392 463.232-463.232 463.232v0c0 0-0.032 0-0.032 0-255.84 0-463.232-207.392-463.232-463.232 0 0 0-0.032 0-0.064v0zM512.032 179.808c-0.864 0-1.888 0-2.912 0-107.904 0-200.192 66.752-237.888 161.184l-0.608 1.728c-0.8 2.336-1.28 4.992-1.28 7.808 0 13.568 10.976 24.544 24.544 24.544 10.752 0 19.904-6.944 23.232-16.576l0.064-0.16c33.12-76.864 108.224-129.696 195.648-129.696s162.528 52.832 195.136 128.32l0.544 1.376c3.36 9.696 12.448 16.544 23.104 16.544 2.784 0 5.472-0.48 7.968-1.344l-0.16 0.064 0.896-0.288c9.888-3.264 16.864-12.416 16.864-23.2 0-2.688-0.448-5.28-1.248-7.68l0.064 0.16c-38.272-96.16-130.56-162.912-238.464-162.912v0zM314.592 575.456c-2.336 5.504-3.712 11.904-3.712 18.624 0 26.912 21.824 48.736 48.736 48.736s48.736-21.824 48.736-48.736c0-26.912-21.792-48.736-48.704-48.736v0c-20.256 0.032-37.632 12.384-44.992 29.984l-0.128 0.32zM651.392 547.104c-20.736 5.888-35.68 24.672-35.68 46.912 0 26.88 21.792 48.672 48.672 48.672s48.672-21.792 48.672-48.672c0-26.88-21.792-48.672-48.64-48.672v0c-4.672 0.064-9.184 0.768-13.44 2.048l0.352-0.096z" />
<glyph unicode="&#xe91a;" glyph-name="Feedback-G1" d="M0.032 447.968c0 282.784 229.216 512 512 512s512-229.216 512-512c0-282.784-229.216-512-512-512v0c-282.784 0-512 229.216-512 512v0zM48.832 447.968c0.032-255.808 207.392-463.168 463.232-463.168s463.232 207.392 463.232 463.232-207.392 463.232-463.232 463.232v0c0 0-0.032 0-0.032 0-255.84 0-463.232-207.392-463.232-463.232 0 0 0-0.032 0-0.064v0zM512.032 179.808c-0.864 0-1.888 0-2.912 0-107.904 0-200.192 66.752-237.888 161.184l-0.608 1.728c-0.8 2.336-1.28 4.992-1.28 7.808 0 13.568 10.976 24.544 24.544 24.544 10.752 0 19.904-6.944 23.232-16.576l0.064-0.16c33.12-76.864 108.224-129.696 195.648-129.696s162.528 52.832 195.136 128.32l0.544 1.376c3.36 9.696 12.448 16.544 23.104 16.544 2.784 0 5.472-0.48 7.968-1.344l-0.16 0.064 0.896-0.288c9.888-3.264 16.864-12.416 16.864-23.2 0-2.688-0.448-5.28-1.248-7.68l0.064 0.16c-38.272-96.16-130.56-162.912-238.464-162.912v0zM314.592 575.456c-2.336 5.504-3.712 11.904-3.712 18.624 0 26.912 21.824 48.736 48.736 48.736s48.736-21.824 48.736-48.736c0-26.912-21.792-48.736-48.704-48.736v0c-20.256 0.032-37.632 12.384-44.992 29.984l-0.128 0.32zM651.392 547.104c-20.736 5.888-35.68 24.672-35.68 46.912 0 26.88 21.792 48.672 48.672 48.672s48.672-21.792 48.672-48.672c0-26.88-21.792-48.672-48.64-48.672v0c-4.672 0.064-9.184 0.768-13.44 2.048l0.352-0.096z" />
<glyph unicode="&#xe91b;" glyph-name="FIG" d="M793.856 960c-92.16 0-166.88-74.72-166.88-166.88s74.72-166.88 166.88-166.88c92.16 0 166.88 74.72 166.88 166.88v0c-0.16 92.096-74.784 166.72-166.848 166.88v0zM793.856 936.448c0 0 0.032 0 0.032 0 79.232 0 143.424-64.224 143.424-143.424s-64.224-143.424-143.424-143.424c-79.232 0-143.424 64.224-143.424 143.424v0c0 0.064 0 0.128 0 0.192 0 79.104 64.128 143.232 143.232 143.232 0.064 0 0.096 0 0.16 0v0zM782.080 879.040v-24.832c-14.464-5.472-24.576-19.2-24.576-35.296 0-0.032 0-0.064 0-0.096v0c0-0.128 0-0.288 0-0.416 0-20.224 16.16-36.672 36.288-37.12h0.032c5.408-0.096 9.952-3.552 11.68-8.384l0.032-0.096c0.64-1.632 1.024-3.52 1.024-5.504 0-3.904-1.472-7.488-3.936-10.176v0c-2.176-2.432-5.312-3.968-8.8-3.968-1.728 0-3.36 0.384-4.832 1.056l0.064-0.032c-4.832 2.304-8.096 7.168-8.096 12.768 0 0.096 0 0.192 0 0.32v0h-23.552c0-0.096 0-0.192 0-0.32 0-15.232 9.024-28.32 22.016-34.24l0.224-0.096c0.768-0.352 1.568-0.544 2.336-0.8v-24.768h23.552v24.768c5.568 1.984 10.272 5.088 14.112 9.088v0c6.432 6.848 10.368 16.064 10.368 26.24 0 5.184-1.024 10.112-2.88 14.592l0.096-0.256c-5.376 13.632-18.368 23.136-33.568 23.328h-0.032c-0.384-0.032-0.832-0.064-1.28-0.064-7.808 0-14.112 6.304-14.112 14.112s6.304 14.112 14.112 14.112c7.776 0 14.080-6.272 14.112-14.048v0h23.552c-0.096 16.032-10.144 29.696-24.288 35.136l-0.256 0.096v24.832h-23.552zM75.84 804.736v-868.736h729.728v655.328h-23.552v-631.776h-682.656v821.664h67.424v-236.544l82.368 82.176 82.368-82.176v236.544h260.544v23.552zM190.336 781.184h117.568v-179.808l-58.848 58.72-58.848-58.72zM167.072 484.416v-23.552h547.296v23.552h-547.296zM167.072 416.192v-23.552h547.296v23.552h-547.296zM167.072 348v-23.552h547.296v23.552h-547.296zM167.072 279.776v-23.552h547.296v23.552h-547.296zM167.072 211.52v-23.552h547.296v23.552h-547.296zM167.072 131.872v-23.552h273.664v23.552zM608.448 65.216v-23.552h105.92v23.552z" />
<glyph unicode="&#xe91c;" glyph-name="FIG-G" d="M793.856 960c-92.16 0-166.88-74.72-166.88-166.88s74.72-166.88 166.88-166.88c92.16 0 166.88 74.72 166.88 166.88v0c-0.16 92.096-74.784 166.72-166.848 166.88v0zM793.856 936.448c0 0 0.032 0 0.032 0 79.232 0 143.424-64.224 143.424-143.424s-64.224-143.424-143.424-143.424c-79.232 0-143.424 64.224-143.424 143.424v0c0 0.064 0 0.128 0 0.192 0 79.104 64.128 143.232 143.232 143.232 0.064 0 0.096 0 0.16 0v0zM782.080 879.040v-24.832c-14.464-5.472-24.576-19.2-24.576-35.296 0-0.032 0-0.064 0-0.096v0c0-0.128 0-0.288 0-0.416 0-20.224 16.16-36.672 36.288-37.12h0.032c5.408-0.096 9.952-3.552 11.68-8.384l0.032-0.096c0.64-1.632 1.024-3.52 1.024-5.504 0-3.904-1.472-7.488-3.936-10.176v0c-2.176-2.432-5.312-3.968-8.8-3.968-1.728 0-3.36 0.384-4.832 1.056l0.064-0.032c-4.832 2.304-8.096 7.168-8.096 12.768 0 0.096 0 0.192 0 0.32v0h-23.552c0-0.096 0-0.192 0-0.32 0-15.232 9.024-28.32 22.016-34.24l0.224-0.096c0.768-0.352 1.568-0.544 2.336-0.8v-24.768h23.552v24.768c5.568 1.984 10.272 5.088 14.112 9.088v0c6.432 6.848 10.368 16.064 10.368 26.24 0 5.184-1.024 10.112-2.88 14.592l0.096-0.256c-5.376 13.632-18.368 23.136-33.568 23.328h-0.032c-0.384-0.032-0.832-0.064-1.28-0.064-7.808 0-14.112 6.304-14.112 14.112s6.304 14.112 14.112 14.112c7.776 0 14.080-6.272 14.112-14.048v0h23.552c-0.096 16.032-10.144 29.696-24.288 35.136l-0.256 0.096v24.832h-23.552zM75.84 804.736v-868.736h729.728v655.328h-23.552v-631.776h-682.656v821.664h67.424v-236.544l82.368 82.176 82.368-82.176v236.544h260.544v23.552zM190.336 781.184h117.568v-179.808l-58.848 58.72-58.848-58.72zM167.072 484.416v-23.552h547.296v23.552h-547.296zM167.072 416.192v-23.552h547.296v23.552h-547.296zM167.072 348v-23.552h547.296v23.552h-547.296zM167.072 279.776v-23.552h547.296v23.552h-547.296zM167.072 211.52v-23.552h547.296v23.552h-547.296zM167.072 131.872v-23.552h273.664v23.552zM608.448 65.216v-23.552h105.92v23.552z" />
<glyph unicode="&#xe91d;" glyph-name="Filter" d="M585.056 447.52c0.96 19.456 7.52 37.248 18.048 51.968l-0.192-0.288 296.096 380.256c9.856 12.8 5.152 22.912-10.912 22.912h-750.336c-15.872 0-20.864-10.112-10.912-22.912l296.096-380.256c10.336-14.432 16.864-32.224 17.824-51.488v-438.656c-0.096-0.672-0.128-1.44-0.128-2.24 0-10.016 8.128-18.144 18.144-18.144 3.232 0 6.272 0.832 8.896 2.336l-0.096-0.032 90.656 36.224c15.328 7.040 25.984 21.92 26.784 39.36v0.096zM642.72 447.52v-380.896c-0.832-41.664-26.304-77.216-62.4-92.704l-0.672-0.256-90.656-36.224c-8.96-4.032-19.424-6.4-30.432-6.4-41.728 0-75.552 33.824-75.552 75.552 0 0.864 0 1.728 0.032 2.592v-0.128 438.4c-0.96 6.112-2.944 11.616-5.792 16.576l0.128-0.224-296.32 380.256c-10.944 12.256-17.632 28.512-17.632 46.368 0 38.496 31.2 69.728 69.728 69.728 1.6 0 3.232-0.064 4.8-0.16h750.112c1.312 0.096 2.816 0.128 4.352 0.128 38.496 0 69.728-31.2 69.728-69.728 0-17.824-6.688-34.080-17.696-46.4l0.064 0.064-295.968-380.256c-2.752-4.704-4.8-10.176-5.76-16.032l-0.032-0.288z" />
<glyph unicode="&#xe91e;" glyph-name="Filter-G" d="M585.056 447.52c0.96 19.456 7.52 37.248 18.048 51.968l-0.192-0.288 296.096 380.256c9.856 12.8 5.152 22.912-10.912 22.912h-750.336c-15.872 0-20.864-10.112-10.912-22.912l296.096-380.256c10.336-14.432 16.864-32.224 17.824-51.488v-438.656c-0.096-0.672-0.128-1.44-0.128-2.24 0-10.016 8.128-18.144 18.144-18.144 3.232 0 6.272 0.832 8.896 2.336l-0.096-0.032 90.656 36.224c15.328 7.040 25.984 21.92 26.784 39.36v0.096zM642.72 447.52v-380.896c-0.832-41.664-26.304-77.216-62.4-92.704l-0.672-0.256-90.656-36.224c-8.96-4.032-19.424-6.4-30.432-6.4-41.728 0-75.552 33.824-75.552 75.552 0 0.864 0 1.728 0.032 2.592v-0.128 438.4c-0.96 6.112-2.944 11.616-5.792 16.576l0.128-0.224-296.32 380.256c-10.944 12.256-17.632 28.512-17.632 46.368 0 38.496 31.2 69.728 69.728 69.728 1.6 0 3.232-0.064 4.8-0.16h750.112c1.312 0.096 2.816 0.128 4.352 0.128 38.496 0 69.728-31.2 69.728-69.728 0-17.824-6.688-34.080-17.696-46.4l0.064 0.064-295.968-380.256c-2.752-4.704-4.8-10.176-5.76-16.032l-0.032-0.288z" />
<glyph unicode="&#xe91f;" glyph-name="Fiscal-Year" d="M901.792 854.4h-24.64v44.48c0 0 0 0 0 0 0 33.632-27.168 60.928-60.768 61.12h-22.24c-33.632-0.192-60.8-27.488-60.8-61.12 0 0 0 0 0 0v0-44.48h-433.504v44.48c0 0 0 0 0 0 0 33.632-27.168 60.928-60.768 61.12h-22.24c-33.632-0.192-60.8-27.488-60.8-61.12 0 0 0 0 0 0v0-44.48h-24.832c-45.984-0.16-83.168-37.44-83.2-83.424v-759.424c0.032-45.984 37.248-83.232 83.2-83.392h770.656c45.952 0.16 83.168 37.408 83.2 83.392v759.424c-0.032 46.016-37.28 83.328-83.264 83.424v0zM766.4 898.88c0.032 15.264 12.352 27.616 27.616 27.712h22.208c15.264-0.096 27.584-12.448 27.616-27.712v-122.496c-0.032-15.264-12.352-27.616-27.616-27.712h-22.208c-15.264 0.096-27.584 12.448-27.616 27.712v0zM189.088 898.88c0.032 15.264 12.352 27.616 27.616 27.712h22.208c15.264-0.096 27.584-12.448 27.616-27.712v-122.496c-0.032-15.264-12.352-27.616-27.616-27.712h-22.208c-15.264 0.096-27.584 12.448-27.616 27.712v0zM951.616 11.264c0 0 0-0.032 0-0.032 0-27.552-22.304-49.888-49.824-49.952h-770.592c-27.52 0.064-49.824 22.4-49.824 49.952 0 0 0 0.032 0 0.032v0 576.896h870.4zM951.616 621.568h-870.4v149.408c0 27.584 22.368 49.952 49.952 49.952 0 0 0.032 0 0.032 0h24.64v-44.544c0 0 0 0 0 0 0-33.632 27.168-60.928 60.768-61.12h22.24c0 0 0 0 0 0 29.408 0 53.984 20.8 59.776 48.512l0.064 0.384c0.8 3.648 1.28 7.872 1.344 12.192v44.576h432.992v-44.544c0.032-4.352 0.512-8.544 1.408-12.608l-0.064 0.384c5.856-28.096 30.432-48.896 59.84-48.896 0 0 0 0 0 0h22.208c33.632 0.192 60.8 27.488 60.8 61.12 0 0 0 0 0 0v0 44.544h24.64c27.52-0.064 49.824-22.4 49.824-49.952 0 0 0-0.032 0-0.032v0-149.376z" />
<glyph unicode="&#xe920;" glyph-name="Fiscal-Year-G" d="M901.792 854.4h-24.64v44.48c0 0 0 0 0 0 0 33.632-27.168 60.928-60.768 61.12h-22.24c-33.632-0.192-60.8-27.488-60.8-61.12 0 0 0 0 0 0v0-44.48h-433.504v44.48c0 0 0 0 0 0 0 33.632-27.168 60.928-60.768 61.12h-22.24c-33.632-0.192-60.8-27.488-60.8-61.12 0 0 0 0 0 0v0-44.48h-24.832c-45.984-0.16-83.168-37.44-83.2-83.424v-759.424c0.032-45.984 37.248-83.232 83.2-83.392h770.656c45.952 0.16 83.168 37.408 83.2 83.392v759.424c-0.032 46.016-37.28 83.328-83.264 83.424v0zM766.4 898.88c0.032 15.264 12.352 27.616 27.616 27.712h22.208c15.264-0.096 27.584-12.448 27.616-27.712v-122.496c-0.032-15.264-12.352-27.616-27.616-27.712h-22.208c-15.264 0.096-27.584 12.448-27.616 27.712v0zM189.088 898.88c0.032 15.264 12.352 27.616 27.616 27.712h22.208c15.264-0.096 27.584-12.448 27.616-27.712v-122.496c-0.032-15.264-12.352-27.616-27.616-27.712h-22.208c-15.264 0.096-27.584 12.448-27.616 27.712v0zM951.616 11.264c0 0 0-0.032 0-0.032 0-27.552-22.304-49.888-49.824-49.952h-770.592c-27.52 0.064-49.824 22.4-49.824 49.952 0 0 0 0.032 0 0.032v0 576.896h870.4zM951.616 621.568h-870.4v149.408c0 27.584 22.368 49.952 49.952 49.952 0 0 0.032 0 0.032 0h24.64v-44.544c0 0 0 0 0 0 0-33.632 27.168-60.928 60.768-61.12h22.24c0 0 0 0 0 0 29.408 0 53.984 20.8 59.776 48.512l0.064 0.384c0.8 3.648 1.28 7.872 1.344 12.192v44.576h432.992v-44.544c0.032-4.352 0.512-8.544 1.408-12.608l-0.064 0.384c5.856-28.096 30.432-48.896 59.84-48.896 0 0 0 0 0 0h22.208c33.632 0.192 60.8 27.488 60.8 61.12 0 0 0 0 0 0v0 44.544h24.64c27.52-0.064 49.824-22.4 49.824-49.952 0 0 0-0.032 0-0.032v0-149.376z" />
<glyph unicode="&#xe921;" glyph-name="Help" d="M0 448c0-282.784 229.216-512 512-512s512 229.216 512 512c0 282.784-229.216 512-512 512v0c-282.624-0.32-511.68-229.376-512-511.968v-0.032zM53.632 449.216c0 252.544 204.736 457.28 457.28 457.28s457.28-204.736 457.28-457.28c0-252.544-204.736-457.28-457.28-457.28v0c-252.448 0.288-457.024 204.832-457.28 457.248v0.032zM466.592 292.608l-1.888 24.384c-0.32 4.352-0.48 9.44-0.48 14.56 0 57.536 22.464 109.824 59.104 148.608l-0.096-0.096c35.744 32.768 59.872 77.664 65.888 128.128l0.096 0.992c0 48.064-30.176 80.128-89.536 81.056-0.16 0-0.384 0-0.576 0-35.328 0-68.128-10.944-95.168-29.632l0.544 0.352-22.624 59.392c37.216 23.68 82.592 37.728 131.232 37.728 1.248 0 2.496 0 3.744-0.032h-0.192c108.384 0 157.408-66.944 157.408-138.592 0-64.128-35.84-110.304-81.056-164.032-33.248-33.632-53.792-79.872-53.792-130.912 0-2.688 0.064-5.376 0.16-8.032v0.384l0.928-24.384zM445.888 160.64c-0.064 1.088-0.128 2.368-0.128 3.68 0 30.784 24.96 55.744 55.744 55.744 0.32 0 0.672 0 0.992 0h-0.064c0.736 0.032 1.568 0.064 2.432 0.064 32.576 0 59.008-26.432 59.008-59.008s-26.432-59.008-59.008-59.008c-32.416 0-58.752 26.176-59.008 58.528v0.032z" />
<glyph unicode="&#xe922;" glyph-name="Help-G" d="M0 448c0-282.784 229.216-512 512-512s512 229.216 512 512c0 282.784-229.216 512-512 512v0c-282.624-0.32-511.68-229.376-512-511.968v-0.032zM53.632 449.216c0 252.544 204.736 457.28 457.28 457.28s457.28-204.736 457.28-457.28c0-252.544-204.736-457.28-457.28-457.28v0c-252.448 0.288-457.024 204.832-457.28 457.248v0.032zM466.592 292.608l-1.888 24.384c-0.32 4.352-0.48 9.44-0.48 14.56 0 57.536 22.464 109.824 59.104 148.608l-0.096-0.096c35.744 32.768 59.872 77.664 65.888 128.128l0.096 0.992c0 48.064-30.176 80.128-89.536 81.056-0.16 0-0.384 0-0.576 0-35.328 0-68.128-10.944-95.168-29.632l0.544 0.352-22.624 59.392c37.216 23.68 82.592 37.728 131.232 37.728 1.248 0 2.496 0 3.744-0.032h-0.192c108.384 0 157.408-66.944 157.408-138.592 0-64.128-35.84-110.304-81.056-164.032-33.248-33.632-53.792-79.872-53.792-130.912 0-2.688 0.064-5.376 0.16-8.032v0.384l0.928-24.384zM445.888 160.64c-0.064 1.088-0.128 2.368-0.128 3.68 0 30.784 24.96 55.744 55.744 55.744 0.32 0 0.672 0 0.992 0h-0.064c0.736 0.032 1.568 0.064 2.432 0.064 32.576 0 59.008-26.432 59.008-59.008s-26.432-59.008-59.008-59.008c-32.416 0-58.752 26.176-59.008 58.528v0.032z" />
<glyph unicode="&#xe923;" glyph-name="Hide-Price" d="M415.456 951.456c-5.28 5.28-12.544 8.544-20.608 8.544 0 0 0 0 0 0h-131.36c0 0 0 0 0 0-8.032 0-15.328-3.264-20.608-8.544l-234.336-234.336c-5.28-5.28-8.544-12.544-8.544-20.608 0 0 0 0 0 0v0-131.36c0 0 0 0 0 0 0-8.032 3.264-15.328 8.544-20.608l600.064-600c5.28-5.28 12.544-8.544 20.608-8.544s15.328 3.264 20.608 8.544l365.696 365.664c5.28 5.28 8.544 12.544 8.544 20.608s-3.264 15.328-8.544 20.608v0zM629.184 6.336l-570.912 570.88v107.232l217.28 217.28h107.168l570.912-570.88zM253.664 800.992c-52.288 0-94.656-42.4-94.656-94.688s42.4-94.688 94.688-94.688 94.688 42.4 94.688 94.688c0 26.144-10.592 49.824-27.744 66.944v0c-17.088 17.12-40.704 27.712-66.784 27.712-0.064 0-0.128 0-0.192 0v0zM279.424 680.576c-6.688-6.368-15.744-10.304-25.76-10.304s-19.072 3.936-25.76 10.336v0c-6.592 6.592-10.656 15.68-10.656 25.728 0 20.096 16.288 36.416 36.416 36.416s36.416-16.288 36.416-36.416c0-10.048-4.064-19.136-10.656-25.728v0zM815.296 348.64c-27.008 36-58.688 66.624-94.56 91.68l-1.344 0.896 62.944 63.040c1.696 2.016 2.72 4.64 2.72 7.52 0 6.496-5.28 11.776-11.776 11.776-2.88 0-5.504-1.024-7.552-2.72h0.032l-67.104-66.848c-27.36 16.224-60.128 26.112-95.168 26.912h-0.224c-116.576 0-208.256-126.688-212.192-132.032-1.376-1.888-2.176-4.288-2.176-6.848s0.832-4.928 2.208-6.88l-0.032 0.032c27.008-36.096 58.688-66.816 94.592-91.904l1.312-0.864-62.656-63.040c-2.624-2.176-4.256-5.44-4.256-9.088 0-6.496 5.28-11.776 11.776-11.776 3.648 0 6.912 1.664 9.056 4.256v0.032l67.040 67.008c27.36-16.224 60.128-26.112 95.168-26.912h0.224c116.544 0 208.256 126.688 212.192 132.032 1.408 1.92 2.272 4.352 2.272 6.944s-0.864 5.024-2.304 6.976l0.032-0.032zM415.744 341.792c20.416 25.76 97.888 115.392 187.712 115.392 28.64-0.672 55.36-8.32 78.72-21.344l-0.864 0.448-33.632-33.632c-12.096 8.64-27.232 13.824-43.52 13.824-41.664 0-75.456-33.792-75.456-75.456 0-16.32 5.184-31.424 13.984-43.776l-0.16 0.224-38.016-38.016c-34.208 23.264-63.456 50.464-88.16 81.472l-0.608 0.8zM647.264 369.088c4.704-7.648 7.488-16.928 7.488-26.848 0-28.64-23.232-51.872-51.872-51.872-9.92 0-19.168 2.784-27.040 7.616l0.224-0.128zM559.36 314.496c-4.736 7.68-7.52 16.96-7.52 26.912 0 28.64 23.232 51.872 51.872 51.872 9.952 0 19.232-2.784 27.136-7.648l-0.224 0.128zM603.296 226.4c-28.64 0.672-55.36 8.32-78.72 21.344l0.864-0.448 33.632 33.632c12.096-8.64 27.232-13.824 43.52-13.824 41.664 0 75.456 33.792 75.456 75.456 0 16.32-5.184 31.424-13.984 43.776l0.16-0.224 38.016 38.016c34.208-23.232 63.456-50.432 88.16-81.44l0.608-0.8c-20.384-25.792-97.888-115.488-187.712-115.488z" />
<glyph unicode="&#xe924;" glyph-name="Hide-Price-G" d="M415.456 951.456c-5.28 5.28-12.544 8.544-20.608 8.544 0 0 0 0 0 0h-131.36c0 0 0 0 0 0-8.032 0-15.328-3.264-20.608-8.544l-234.336-234.336c-5.28-5.28-8.544-12.544-8.544-20.608 0 0 0 0 0 0v0-131.36c0 0 0 0 0 0 0-8.032 3.264-15.328 8.544-20.608l600.064-600c5.28-5.28 12.544-8.544 20.608-8.544s15.328 3.264 20.608 8.544l365.696 365.664c5.28 5.28 8.544 12.544 8.544 20.608s-3.264 15.328-8.544 20.608v0zM629.184 6.336l-570.912 570.88v107.232l217.28 217.28h107.168l570.912-570.88zM253.664 800.992c-52.288 0-94.656-42.4-94.656-94.688s42.4-94.688 94.688-94.688 94.688 42.4 94.688 94.688c0 26.144-10.592 49.824-27.744 66.944v0c-17.088 17.12-40.704 27.712-66.784 27.712-0.064 0-0.128 0-0.192 0v0zM279.424 680.576c-6.688-6.368-15.744-10.304-25.76-10.304s-19.072 3.936-25.76 10.336v0c-6.592 6.592-10.656 15.68-10.656 25.728 0 20.096 16.288 36.416 36.416 36.416s36.416-16.288 36.416-36.416c0-10.048-4.064-19.136-10.656-25.728v0zM815.296 348.64c-27.008 36-58.688 66.624-94.56 91.68l-1.344 0.896 62.944 63.040c1.696 2.016 2.72 4.64 2.72 7.52 0 6.496-5.28 11.776-11.776 11.776-2.88 0-5.504-1.024-7.552-2.72h0.032l-67.104-66.848c-27.36 16.224-60.128 26.112-95.168 26.912h-0.224c-116.576 0-208.256-126.688-212.192-132.032-1.376-1.888-2.176-4.288-2.176-6.848s0.832-4.928 2.208-6.88l-0.032 0.032c27.008-36.096 58.688-66.816 94.592-91.904l1.312-0.864-62.656-63.040c-2.624-2.176-4.256-5.44-4.256-9.088 0-6.496 5.28-11.776 11.776-11.776 3.648 0 6.912 1.664 9.056 4.256v0.032l67.040 67.008c27.36-16.224 60.128-26.112 95.168-26.912h0.224c116.544 0 208.256 126.688 212.192 132.032 1.408 1.92 2.272 4.352 2.272 6.944s-0.864 5.024-2.304 6.976l0.032-0.032zM415.744 341.792c20.416 25.76 97.888 115.392 187.712 115.392 28.64-0.672 55.36-8.32 78.72-21.344l-0.864 0.448-33.632-33.632c-12.096 8.64-27.232 13.824-43.52 13.824-41.664 0-75.456-33.792-75.456-75.456 0-16.32 5.184-31.424 13.984-43.776l-0.16 0.224-38.016-38.016c-34.208 23.264-63.456 50.464-88.16 81.472l-0.608 0.8zM647.264 369.088c4.704-7.648 7.488-16.928 7.488-26.848 0-28.64-23.232-51.872-51.872-51.872-9.92 0-19.168 2.784-27.040 7.616l0.224-0.128zM559.36 314.496c-4.736 7.68-7.52 16.96-7.52 26.912 0 28.64 23.232 51.872 51.872 51.872 9.952 0 19.232-2.784 27.136-7.648l-0.224 0.128zM603.296 226.4c-28.64 0.672-55.36 8.32-78.72 21.344l0.864-0.448 33.632 33.632c12.096-8.64 27.232-13.824 43.52-13.824 41.664 0 75.456 33.792 75.456 75.456 0 16.32-5.184 31.424-13.984 43.776l0.16-0.224 38.016 38.016c34.208-23.232 63.456-50.432 88.16-81.44l0.608-0.8c-20.384-25.792-97.888-115.488-187.712-115.488z" />
<glyph unicode="&#xe925;" glyph-name="Link" d="M185.184 180.64l63.808-63.808 490.816 490.816 2.432-267.232 93.568 2.144 2.4 335.648c-1.088 23.552-10.656 46.912-28.736 64.992s-41.408 27.648-65.088 28.736l-337.984 0.192 4.64-95.968 260.384-0.128z" />
<glyph unicode="&#xe926;" glyph-name="Link-G" d="M185.184 180.64l63.808-63.808 490.816 490.816 2.432-267.232 93.568 2.144 2.4 335.648c-1.088 23.552-10.656 46.912-28.736 64.992s-41.408 27.648-65.088 28.736l-337.984 0.192 4.64-95.968 260.384-0.128z" />
<glyph unicode="&#xe927;" glyph-name="Logout1" d="M172.768 901.504h322.048v58.496h-329.344c-56.864-4.16-101.44-51.328-101.44-108.896 0-2.688 0.096-5.376 0.288-8l-0.032 0.352 0.256-3.2v-803.968c-0.032-0.8-0.032-1.696-0.032-2.624 0-53.28 42.496-96.672 95.424-98.112h0.128c0.768-0.032 1.632-0.032 2.528-0.032 3.616 0 7.168 0.192 10.688 0.576l-0.448-0.032h319.712v59.104h-322.144c-0.288 0-0.64 0-0.992 0-26.24 0-47.584 21.024-48.128 47.136v0.064c-0.032 0.704-0.064 1.504-0.064 2.336s0.032 1.632 0.064 2.432v-0.096 796.672c-0.384 2.368-0.608 5.088-0.608 7.872 0 24.864 18.144 45.472 41.888 49.344l0.288 0.032c2.4 0.416 5.152 0.64 8 0.64 0.672 0 1.312 0 1.952-0.032h-0.096zM720 675.936l-35.488-41.728 148.064-153.6-537.6-4.256v-59.232h537.6l-148.064-149.664 35.488-44.832 221.856 225.248z" />
<glyph unicode="&#xe928;" glyph-name="Logout-G1" d="M172.768 901.504h322.048v58.496h-329.344c-56.864-4.16-101.44-51.328-101.44-108.896 0-2.688 0.096-5.376 0.288-8l-0.032 0.352 0.256-3.2v-803.968c-0.032-0.8-0.032-1.696-0.032-2.624 0-53.28 42.496-96.672 95.424-98.112h0.128c0.768-0.032 1.632-0.032 2.528-0.032 3.616 0 7.168 0.192 10.688 0.576l-0.448-0.032h319.712v59.104h-322.144c-0.288 0-0.64 0-0.992 0-26.24 0-47.584 21.024-48.128 47.136v0.064c-0.032 0.704-0.064 1.504-0.064 2.336s0.032 1.632 0.064 2.432v-0.096 796.672c-0.384 2.368-0.608 5.088-0.608 7.872 0 24.864 18.144 45.472 41.888 49.344l0.288 0.032c2.4 0.416 5.152 0.64 8 0.64 0.672 0 1.312 0 1.952-0.032h-0.096zM720 675.936l-35.488-41.728 148.064-153.6-537.6-4.256v-59.232h537.6l-148.064-149.664 35.488-44.832 221.856 225.248z" />
<glyph unicode="&#xe929;" glyph-name="Module1" d="M362.656 87.040c0.32 82.24 67.040 148.768 149.344 148.768 82.464 0 149.344-66.848 149.344-149.344s-66.848-149.344-149.344-149.344v0c0 0 0 0 0 0-82.464 0-149.344 66.848-149.344 149.344 0 0.192 0 0.384 0 0.576v-0.032zM408.608 86.112c0.288-57.472 46.944-103.936 104.448-103.936 57.696 0 104.448 46.752 104.448 104.448s-46.752 104.448-104.448 104.448c0 0-0.032 0-0.032 0v0c-57.664-0.064-104.416-46.816-104.416-104.48 0-0.16 0-0.32 0-0.48v0.032zM362.656 448.768c0.32 82.24 67.040 148.768 149.344 148.768 82.464 0 149.344-66.848 149.344-149.344s-66.848-149.344-149.344-149.344v0c0 0 0 0 0 0-82.464 0-149.344 66.848-149.344 149.344 0 0.192 0 0.384 0 0.576v-0.032zM408.608 448.128c0.288-56.864 46.464-102.88 103.392-102.88 57.088 0 103.392 46.272 103.392 103.392s-46.272 103.392-103.392 103.392v0c0 0 0 0 0 0-57.088 0-103.392-46.272-103.392-103.392 0-0.192 0-0.352 0-0.544v0.032zM362.656 811.264c0.352 82.208 67.072 148.736 149.344 148.736 82.464 0 149.344-66.848 149.344-149.344s-66.848-149.344-149.344-149.344v0c0 0 0 0 0 0-82.464 0-149.344 66.848-149.344 149.344 0 0.224 0 0.416 0 0.64v-0.032zM408.608 811.264c0.288-56.864 46.464-102.88 103.392-102.88 57.088 0 103.392 46.272 103.392 103.392s-46.272 103.392-103.392 103.392v0c0 0 0 0 0 0-57.088 0-103.392-46.272-103.392-103.392 0-0.192 0-0.352 0-0.544v0.032z" />
<glyph unicode="&#xe92a;" glyph-name="Module-G" d="M362.656 87.040c0.32 82.24 67.040 148.768 149.344 148.768 82.464 0 149.344-66.848 149.344-149.344s-66.848-149.344-149.344-149.344v0c0 0 0 0 0 0-82.464 0-149.344 66.848-149.344 149.344 0 0.192 0 0.384 0 0.576v-0.032zM408.608 86.112c0.288-57.472 46.944-103.936 104.448-103.936 57.696 0 104.448 46.752 104.448 104.448s-46.752 104.448-104.448 104.448c0 0-0.032 0-0.032 0v0c-57.664-0.064-104.416-46.816-104.416-104.48 0-0.16 0-0.32 0-0.48v0.032zM362.656 448.768c0.32 82.24 67.040 148.768 149.344 148.768 82.464 0 149.344-66.848 149.344-149.344s-66.848-149.344-149.344-149.344v0c0 0 0 0 0 0-82.464 0-149.344 66.848-149.344 149.344 0 0.192 0 0.384 0 0.576v-0.032zM408.608 448.128c0.288-56.864 46.464-102.88 103.392-102.88 57.088 0 103.392 46.272 103.392 103.392s-46.272 103.392-103.392 103.392v0c0 0 0 0 0 0-57.088 0-103.392-46.272-103.392-103.392 0-0.192 0-0.352 0-0.544v0.032zM362.656 811.264c0.352 82.208 67.072 148.736 149.344 148.736 82.464 0 149.344-66.848 149.344-149.344s-66.848-149.344-149.344-149.344v0c0 0 0 0 0 0-82.464 0-149.344 66.848-149.344 149.344 0 0.224 0 0.416 0 0.64v-0.032zM408.608 811.264c0.288-56.864 46.464-102.88 103.392-102.88 57.088 0 103.392 46.272 103.392 103.392s-46.272 103.392-103.392 103.392v0c0 0 0 0 0 0-57.088 0-103.392-46.272-103.392-103.392 0-0.192 0-0.352 0-0.544v0.032z" />
<glyph unicode="&#xe92b;" glyph-name="Op-component-1" d="M938.208-63.968l-1.376 779.872-250.016 243.712h-550.048c-64.896-2.4-48.256 15.36-50.016-54.816l-1.408-968.736c0.512-0.672 852.096 1.12 852.864 0zM881.824-10.336h-740.096v916.32h445.056v-287.584h295.040zM641.792 672v238.944l245.024-238.944z" />
<glyph unicode="&#xe92c;" glyph-name="Op-component-5" d="M0 487.392h1025.408v-98.848h-1025.408v98.848z" />
<glyph unicode="&#xe92d;" glyph-name="PRICE-SOURCE" horiz-adv-x="1056" d="M828.736-37.952h-8.672c-121.504 0-221.28 95.456-221.28 216.96 4.352 121.504 104.128 216.96 221.28 216.96h8.672c121.504 0 221.28-95.456 221.28-216.96-4.352-117.152-104.128-216.96-221.28-216.96zM824.416 5.408h4.352c95.456 0 177.888 78.112 177.888 173.568s-82.432 173.568-177.888 173.568h-4.352c0 0 0 0 0 0-99.808 0-182.24-78.112-182.24-173.568s78.112-173.568 182.24-173.568zM403.52 521.76c-225.632 0-403.52 95.456-403.52 221.28 0 121.504 177.888 221.28 403.52 221.28s403.52-95.456 403.52-221.28c-4.352-125.824-182.24-221.28-403.52-221.28zM403.52 916.608c-195.264 0-360.128-82.432-360.128-177.888s164.896-177.888 360.128-177.888c195.264 0 360.128 82.432 360.128 177.888-4.352 95.456-169.216 177.888-360.128 177.888zM425.216-64c-377.504 0-420.896 190.912-425.216 199.584 0 0 0 4.352 0 4.352v590.112c0 13.024 8.672 21.696 21.696 21.696s21.696-8.672 21.696-21.696v-590.112c4.352-21.696 78.112-208.256 542.368-151.872 13.024 0 21.696-8.672 26.048-17.344 0-13.024-8.672-21.696-17.344-26.048-65.088-4.352-121.504-8.672-169.216-8.672zM403.52 326.496c-308.064 0-394.848 169.216-399.2 177.888s0 21.696 8.672 30.368c8.672 4.352 21.696 0 30.368-8.672 4.352-8.672 82.432-156.192 360.128-156.192 282.048 0 360.128 151.872 360.128 156.192 4.352 8.672 17.344 13.024 30.368 8.672 8.672-4.352 13.024-17.344 8.672-30.368-4.352-8.672-95.456-177.888-399.2-177.888zM420.896 118.24c-334.112 0-416.544 160.544-416.544 169.216-4.352 8.672 0 21.696 8.672 30.368 13.024 4.352 21.696 0 30.368-8.672 0-4.352 91.104-173.568 477.28-138.848 13.024 0 21.696-8.672 21.696-21.696s-8.672-21.696-21.696-21.696c-34.72-8.672-69.408-8.672-99.808-8.672zM759.328 738.72h43.392v-225.632h-43.392v225.632zM820.064 70.496c-4.352 0-4.352 0-8.672 0-26.048 0-47.744 13.024-60.736 34.72-4.352 8.672-4.352 17.344 4.352 26.048 8.672 4.352 17.344 4.352 26.048-4.352 8.672-13.024 21.696-21.696 34.72-21.696l4.352-17.344v17.344c17.344 0 26.048 13.024 26.048 26.048 0 17.344-4.352 26.048-47.744 34.72-8.672 0-17.344 13.024-13.024 21.696s8.672 17.344 21.696 13.024c30.368-4.352 73.76-13.024 73.76-69.408 4.352-30.368-26.048-60.736-60.736-60.736v0zM820.064 161.632c0 0-4.352 0-4.352 0-39.040 8.672-60.736 21.696-60.736 69.408 0 17.344 4.352 30.368 17.344 43.392s26.048 17.344 43.392 17.344c4.352 0 4.352 0 8.672 0 26.048 0 47.744-13.024 60.736-34.72 4.352-8.672 4.352-17.344-4.352-26.048-8.672-4.352-17.344-4.352-26.048 4.352-8.672 13.024-21.696 21.696-34.72 21.696h-4.352c-8.672 0-13.024-4.352-17.344-8.672s-8.672-13.024-8.672-21.696c0-21.696 0-26.048 34.72-34.72 8.672-4.352 13.024-13.024 13.024-21.696-4.352 0-13.024-8.672-17.344-8.672zM820.064 31.456c-4.352 0-13.024 4.352-13.024 13.024v260.352c0 4.352 4.352 13.024 13.024 13.024s13.024-4.352 13.024-13.024v-260.352c-4.352-8.672-8.672-13.024-13.024-13.024z" />
<glyph unicode="&#xe92e;" glyph-name="PRICE-SOURCE-G" horiz-adv-x="1056" d="M828.736-37.952h-8.672c-121.504 0-221.28 95.456-221.28 216.96 4.352 121.504 104.128 216.96 221.28 216.96h8.672c121.504 0 221.28-95.456 221.28-216.96-4.352-117.152-104.128-216.96-221.28-216.96zM824.416 5.408h4.352c95.456 0 177.888 78.112 177.888 173.568s-82.432 173.568-177.888 173.568h-4.352c0 0 0 0 0 0-99.808 0-182.24-78.112-182.24-173.568s78.112-173.568 182.24-173.568zM403.52 521.76c-225.632 0-403.52 95.456-403.52 221.28 0 121.504 177.888 221.28 403.52 221.28s403.52-95.456 403.52-221.28c-4.352-125.824-182.24-221.28-403.52-221.28zM403.52 916.608c-195.264 0-360.128-82.432-360.128-177.888s164.896-177.888 360.128-177.888c195.264 0 360.128 82.432 360.128 177.888-4.352 95.456-169.216 177.888-360.128 177.888zM425.216-64c-377.504 0-420.896 190.912-425.216 199.584 0 0 0 4.352 0 4.352v590.112c0 13.024 8.672 21.696 21.696 21.696s21.696-8.672 21.696-21.696v-590.112c4.352-21.696 78.112-208.256 542.368-151.872 13.024 0 21.696-8.672 26.048-17.344 0-13.024-8.672-21.696-17.344-26.048-65.088-4.352-121.504-8.672-169.216-8.672zM403.52 326.496c-308.064 0-394.848 169.216-399.2 177.888s0 21.696 8.672 30.368c8.672 4.352 21.696 0 30.368-8.672 4.352-8.672 82.432-156.192 360.128-156.192 282.048 0 360.128 151.872 360.128 156.192 4.352 8.672 17.344 13.024 30.368 8.672 8.672-4.352 13.024-17.344 8.672-30.368-4.352-8.672-95.456-177.888-399.2-177.888zM420.896 118.24c-334.112 0-416.544 160.544-416.544 169.216-4.352 8.672 0 21.696 8.672 30.368 13.024 4.352 21.696 0 30.368-8.672 0-4.352 91.104-173.568 477.28-138.848 13.024 0 21.696-8.672 21.696-21.696s-8.672-21.696-21.696-21.696c-34.72-8.672-69.408-8.672-99.808-8.672zM759.328 738.72h43.392v-225.632h-43.392v225.632zM820.064 70.496c-4.352 0-4.352 0-8.672 0-26.048 0-47.744 13.024-60.736 34.72-4.352 8.672-4.352 17.344 4.352 26.048 8.672 4.352 17.344 4.352 26.048-4.352 8.672-13.024 21.696-21.696 34.72-21.696l4.352-17.344v17.344c17.344 0 26.048 13.024 26.048 26.048 0 17.344-4.352 26.048-47.744 34.72-8.672 0-17.344 13.024-13.024 21.696s8.672 17.344 21.696 13.024c30.368-4.352 73.76-13.024 73.76-69.408 4.352-30.368-26.048-60.736-60.736-60.736v0zM820.064 161.632c0 0-4.352 0-4.352 0-39.040 8.672-60.736 21.696-60.736 69.408 0 17.344 4.352 30.368 17.344 43.392s26.048 17.344 43.392 17.344c4.352 0 4.352 0 8.672 0 26.048 0 47.744-13.024 60.736-34.72 4.352-8.672 4.352-17.344-4.352-26.048-8.672-4.352-17.344-4.352-26.048 4.352-8.672 13.024-21.696 21.696-34.72 21.696h-4.352c-8.672 0-13.024-4.352-17.344-8.672s-8.672-13.024-8.672-21.696c0-21.696 0-26.048 34.72-34.72 8.672-4.352 13.024-13.024 13.024-21.696-4.352 0-13.024-8.672-17.344-8.672zM820.064 31.456c-4.352 0-13.024 4.352-13.024 13.024v260.352c0 4.352 4.352 13.024 13.024 13.024s13.024-4.352 13.024-13.024v-260.352c-4.352-8.672-8.672-13.024-13.024-13.024z" />
<glyph unicode="&#xe92f;" glyph-name="Report-1" d="M938.208-63.968l-1.376 779.872-250.016 243.712h-550.048c-64.896-2.4-48.256 15.36-50.016-54.816l-1.408-968.736c0.512-0.672 852.096 1.12 852.864 0zM881.824-10.336h-740.096v916.32h445.056v-287.584h295.040zM641.792 672v238.944l245.024-238.944zM234.080 521.12h555.424v-53.536h-555.424v53.536zM237.664 667.264h196.448v-53.536h-196.448v53.536zM234.080 374.496h555.424v-53.536h-555.424v53.536zM234.080 228.352h555.424v-53.536h-555.424v53.536z" />
<glyph unicode="&#xe930;" glyph-name="Report-G-1" d="M938.208-63.968l-1.376 779.872-250.016 243.712h-550.048c-64.896-2.4-48.256 15.36-50.016-54.816l-1.408-968.736c0.512-0.672 852.096 1.12 852.864 0zM881.824-10.336h-740.096v916.32h445.056v-287.584h295.040zM641.792 672v238.944l245.024-238.944zM234.080 521.12h555.424v-53.536h-555.424v53.536zM237.664 667.264h196.448v-53.536h-196.448v53.536zM234.080 374.496h555.424v-53.536h-555.424v53.536zM234.080 228.352h555.424v-53.536h-555.424v53.536z" />
<glyph unicode="&#xe931;" glyph-name="Roll-Over" d="M977.056 577.664l46.944-34.144-136.544-188.192-175.872 149.024 37.504 44.256 96.672-81.92c-14.176 172.608-157.76 307.36-332.8 307.36-105.504 0-199.584-48.928-260.768-125.344l-0.512-0.672-18.080-22.688-45.536 36.192 18.080 22.688c72.416 90.432 182.816 147.84 306.624 147.84 203.968 0 371.52-155.776 390.208-354.88l0.128-1.568zM120.96 441.472c0-0.512 0-1.056 0-1.568 0-0.032 0-0.096 0-0.128 0-216.448 175.488-391.936 391.936-391.936 137.376 0 258.24 70.656 328.224 177.632l0.928 1.504 15.776 24.32-48.672 31.584-15.776-24.32c-60.416-92.416-163.392-152.64-280.448-152.64-184.448 0-333.952 149.504-333.952 333.952 0 0.032 0 0.064 0 0.128v0c0 4.992 0 9.952 0.384 14.88l94.976-90.144 39.968 42.016-167.008 158.816-147.296-180 44.896-36.736z" />
<glyph unicode="&#xe932;" glyph-name="Roll-Over-G1" d="M977.056 577.664l46.944-34.144-136.544-188.192-175.872 149.024 37.504 44.256 96.672-81.92c-14.176 172.608-157.76 307.36-332.8 307.36-105.504 0-199.584-48.928-260.768-125.344l-0.512-0.672-18.080-22.688-45.536 36.192 18.080 22.688c72.416 90.432 182.816 147.84 306.624 147.84 203.968 0 371.52-155.776 390.208-354.88l0.128-1.568zM120.96 441.472c0-0.512 0-1.056 0-1.568 0-0.032 0-0.096 0-0.128 0-216.448 175.488-391.936 391.936-391.936 137.376 0 258.24 70.656 328.224 177.632l0.928 1.504 15.776 24.32-48.672 31.584-15.776-24.32c-60.416-92.416-163.392-152.64-280.448-152.64-184.448 0-333.952 149.504-333.952 333.952 0 0.032 0 0.064 0 0.128v0c0 4.992 0 9.952 0.384 14.88l94.976-90.144 39.968 42.016-167.008 158.816-147.296-180 44.896-36.736z" />
<glyph unicode="&#xe933;" d="M946.944-84.48v793.6l-256 250.88h-563.2c-66.56 0-51.2 15.36-51.2-56.32v-988.16c0 0 870.4 0 870.4 0zM890.624-28.16h-752.64v936.96h455.68v-291.84h302.080l-5.12-645.12zM644.864 668.16v240.64l250.88-245.76h-250.88z" />
<glyph unicode="&#xe934;" d="M521.984 320l-46.080 30.72 51.2 71.68-61.44 71.68 40.96 30.72 81.92-97.28z" />
<glyph unicode="&#xe935;" glyph-name="Run-Prices-G" d="M946.944-84.48v793.6l-256 250.88h-563.2c-66.56 0-51.2 15.36-51.2-56.32v-988.16c0 0 870.4 0 870.4 0zM890.624-28.16h-752.64v936.96h455.68v-291.84h302.080l-5.12-645.12zM644.864 668.16v240.64l250.88-245.76h-250.88zM521.984 320l-46.080 30.72 51.2 71.68-61.44 71.68 40.96 30.72 81.92-97.28zM511.744 115.2c0 0 0 0 0 0-92.16 0-163.84 71.68-163.84 163.84s71.68 163.84 163.84 163.84h25.6v-51.2h-25.6c-61.44 0-112.64-51.2-112.64-112.64s51.2-112.64 112.64-112.64c0 0 0 0 0 0 61.44 0 112.64 51.2 112.64 112.64v25.6h51.2v-25.6c0-87.040-71.68-163.84-163.84-163.84z" />
<glyph unicode="&#xe936;" glyph-name="Search1" d="M669.856 251.744c-70.656-61.984-163.808-99.776-265.824-99.776-223.136 0-404 180.896-404 404s180.896 404 404 404c223.136 0 404-180.896 404-404 0-102.016-37.792-195.2-100.16-266.304l0.384 0.448 307.2-307.68c4.864-4.864 7.904-11.616 7.904-19.040 0-14.88-12.064-26.944-26.944-26.944-7.456 0-14.176 3.008-19.040 7.904v0l-307.488 307.36zM650.368 307.2c0.8 0.896 1.632 1.728 2.496 2.496l0.032 0.032c62.56 63.2 101.216 150.144 101.216 246.144 0 193.216-156.64 349.856-349.856 349.856s-349.856-156.64-349.856-349.856c0-193.216 156.64-349.856 349.856-349.856 96 0 182.944 38.656 246.176 101.248l-0.032-0.032z" />
<glyph unicode="&#xe937;" glyph-name="Search-G1" d="M669.856 251.744c-70.656-61.984-163.808-99.776-265.824-99.776-223.136 0-404 180.896-404 404s180.896 404 404 404c223.136 0 404-180.896 404-404 0-102.016-37.792-195.2-100.16-266.304l0.384 0.448 307.2-307.68c4.864-4.864 7.904-11.616 7.904-19.040 0-14.88-12.064-26.944-26.944-26.944-7.456 0-14.176 3.008-19.040 7.904v0l-307.488 307.36zM650.368 307.2c0.8 0.896 1.632 1.728 2.496 2.496l0.032 0.032c62.56 63.2 101.216 150.144 101.216 246.144 0 193.216-156.64 349.856-349.856 349.856s-349.856-156.64-349.856-349.856c0-193.216 156.64-349.856 349.856-349.856 96 0 182.944 38.656 246.176 101.248l-0.032-0.032z" />
<glyph unicode="&#xe938;" glyph-name="SEND-MAIL" d="M976.672 814.336c0 0.064 0 0.096 0 0.16 0 9.664-7.84 17.504-17.504 17.504-0.064 0-0.128 0-0.192 0h-941.344c-0.064 0-0.096 0-0.16 0-9.664 0-17.504-7.84-17.504-17.504 0-0.064 0-0.128 0-0.192v0-564.96c0-0.064 0-0.096 0-0.16 0-9.664 7.84-17.504 17.504-17.504 0.064 0 0.128 0 0.192 0h595.328c9.184-106.016 97.536-188.608 205.152-188.608 113.696 0 205.856 92.16 205.856 205.856 0 0.128 0 0.288 0 0.416v-0.032c0 0.128 0 0.256 0 0.384 0 49.824-17.888 95.488-47.584 130.912l0.256-0.32zM612.992 267.040h-577.664v529.632h906.016v-382.752c-34.048 26.048-77.216 41.76-124.064 41.76-107.488 0-195.68-82.688-204.416-187.904l-0.064-0.736zM988.704 249.376c0-94.272-76.416-170.656-170.656-170.656s-170.656 76.416-170.656 170.656c0 94.176 76.256 170.528 170.4 170.656v0c0.064 0 0.128 0 0.224 0 94.272 0 170.656-76.416 170.656-170.656 0 0 0 0 0 0v0zM880.384 727.776c-2.784 5.888-8.672 9.888-15.488 9.888-2.976 0-5.792-0.768-8.256-2.112l0.096 0.032-368.224-185.12-368.48 185.12c-2.144 0.992-4.672 1.568-7.328 1.568-9.856 0-17.824-8-17.824-17.824 0-6.72 3.712-12.576 9.216-15.616l0.096-0.032 376.288-189.024c2.112-1.12 4.608-1.792 7.264-1.792 0.192 0 0.352 0 0.544 0h-0.032c2.816 0.096 5.472 0.736 7.904 1.856l-0.128-0.064 376.288 189.024c5.92 3.104 9.888 9.216 9.888 16.256 0 2.848-0.64 5.568-1.824 7.968l0.064-0.096zM967.072 243.392v0c1.216 2.912 1.536 5.984 1.024 8.96v0.064c-0.288 0.768-0.256 1.28-0.512 2.016-0.64 2.912-2.080 5.792-4.256 8.224l-66.944 66.944c-0.16 0.192-0.384 0.416-0.608 0.64-6.944 6.944-18.176 6.944-25.088 0s-6.944-18.176 0-25.088c0.224-0.224 0.448-0.416 0.672-0.64l36.576-36.576h-181.984c-4.576 0.064-9.184-1.632-12.672-5.12s-5.216-8.096-5.12-12.672v0c-0.032-4.512 1.632-9.056 4.992-12.544v0c3.424-3.392 7.904-5.024 12.352-4.96h181.984l-36.608-36.608c-6.336-7.008-6.112-17.76 0.608-24.48s17.472-6.912 24.448-0.64l67.040 67.040c0.384 0.288 0.832 0.672 1.216 1.056 1.312 1.312 2.272 2.88 2.816 4.544l-0.032-0.064z" />
<glyph unicode="&#xe939;" glyph-name="SEND-MAIL-G" d="M976.672 814.336c0 0.064 0 0.096 0 0.16 0 9.664-7.84 17.504-17.504 17.504-0.064 0-0.128 0-0.192 0h-941.344c-0.064 0-0.096 0-0.16 0-9.664 0-17.504-7.84-17.504-17.504 0-0.064 0-0.128 0-0.192v0-564.96c0-0.064 0-0.096 0-0.16 0-9.664 7.84-17.504 17.504-17.504 0.064 0 0.128 0 0.192 0h595.328c9.184-106.016 97.536-188.608 205.152-188.608 113.696 0 205.856 92.16 205.856 205.856 0 0.128 0 0.288 0 0.416v-0.032c0 0.128 0 0.256 0 0.384 0 49.824-17.888 95.488-47.584 130.912l0.256-0.32zM612.992 267.040h-577.664v529.632h906.016v-382.752c-34.048 26.048-77.216 41.76-124.064 41.76-107.488 0-195.68-82.688-204.416-187.904l-0.064-0.736zM988.704 249.376c0-94.272-76.416-170.656-170.656-170.656s-170.656 76.416-170.656 170.656c0 94.176 76.256 170.528 170.4 170.656v0c0.064 0 0.128 0 0.224 0 94.272 0 170.656-76.416 170.656-170.656 0 0 0 0 0 0v0zM880.384 727.776c-2.784 5.888-8.672 9.888-15.488 9.888-2.976 0-5.792-0.768-8.256-2.112l0.096 0.032-368.224-185.12-368.48 185.12c-2.144 0.992-4.672 1.568-7.328 1.568-9.856 0-17.824-8-17.824-17.824 0-6.72 3.712-12.576 9.216-15.616l0.096-0.032 376.288-189.024c2.112-1.12 4.608-1.792 7.264-1.792 0.192 0 0.352 0 0.544 0h-0.032c2.816 0.096 5.472 0.736 7.904 1.856l-0.128-0.064 376.288 189.024c5.92 3.104 9.888 9.216 9.888 16.256 0 2.848-0.64 5.568-1.824 7.968l0.064-0.096zM967.072 243.392v0c1.216 2.912 1.536 5.984 1.024 8.96v0.064c-0.288 0.768-0.256 1.28-0.512 2.016-0.64 2.912-2.080 5.792-4.256 8.224l-66.944 66.944c-0.16 0.192-0.384 0.416-0.608 0.64-6.944 6.944-18.176 6.944-25.088 0s-6.944-18.176 0-25.088c0.224-0.224 0.448-0.416 0.672-0.64l36.576-36.576h-181.984c-4.576 0.064-9.184-1.632-12.672-5.12s-5.216-8.096-5.12-12.672v0c-0.032-4.512 1.632-9.056 4.992-12.544v0c3.424-3.392 7.904-5.024 12.352-4.96h181.984l-36.608-36.608c-6.336-7.008-6.112-17.76 0.608-24.48s17.472-6.912 24.448-0.64l67.040 67.040c0.384 0.288 0.832 0.672 1.216 1.056 1.312 1.312 2.272 2.88 2.816 4.544l-0.032-0.064z" />
<glyph unicode="&#xe93a;" glyph-name="Settings" d="M971.552 555.68l-71.872 12.192c-8.416 26.944-18.208 50.016-29.952 71.904l1.056-2.176 42.368 59.264c7.392 10.208 11.808 22.944 11.808 36.736 0 17.504-7.136 33.344-18.624 44.768l-63.776 63.776c-11.392 11.488-27.168 18.592-44.64 18.592-0.032 0-0.032 0-0.064 0v0c-0.064 0-0.096 0-0.16 0-13.664 0-26.304-4.416-36.576-11.904l0.192 0.128-59.456-42.368c-20.512 11.168-44.448 21.248-69.44 28.96l-2.848 0.768-11.968 71.008c-5.152 30.144-31.104 52.8-62.336 52.8-0.032 0-0.096 0-0.128 0h-90.112c-0.032 0-0.096 0-0.128 0-31.232 0-57.184-22.656-62.272-52.416l-0.064-0.384-12.384-72.736c-26.816-8.48-49.824-18.432-71.584-30.368l2.048 1.024-58.816 42.368c-10.208 7.36-22.944 11.744-36.704 11.744-17.504 0-33.344-7.104-44.8-18.624v0l-63.968-63.712c-11.488-11.456-18.592-27.296-18.592-44.8 0-13.824 4.416-26.592 11.936-36.992l-0.128 0.192 42.752-60.096c-10.624-19.808-20.288-42.976-27.68-67.136l-0.736-2.816-71.008-11.968c-30.24-5.088-52.992-31.072-52.992-62.368 0-0.096 0-0.224 0-0.32v0.032-90.048c0-0.032 0-0.096 0-0.128 0-31.232 22.656-57.184 52.416-62.272l0.384-0.064 72.736-12.416c8.48-26.816 18.432-49.824 30.368-71.584l-1.024 2.048-42.144-58.592c-7.392-10.208-11.808-22.944-11.808-36.736 0-17.504 7.136-33.344 18.624-44.768l63.776-63.712c11.392-11.488 27.2-18.592 44.64-18.592 13.728 0 26.432 4.384 36.768 11.84l-0.192-0.128 60.384 43.104c19.072-10.208 41.44-19.648 64.704-27.040l2.848-0.768 11.968-71.872c5.152-30.144 31.104-52.8 62.336-52.8 0.032 0 0.096 0 0.128 0h90.272c0.032 0 0.096 0 0.128 0 31.232 0 57.184 22.656 62.272 52.416l0.064 0.384 12.192 71.872c26.944 8.384 50.016 18.176 71.904 29.952l-2.176-1.056 59.264-42.368c10.208-7.36 22.944-11.776 36.736-11.776 17.504 0 33.344 7.104 44.768 18.624l63.776 63.776c11.456 11.456 18.56 27.296 18.56 44.8 0 13.76-4.384 26.528-11.872 36.928l0.128-0.192-42.496 59.392c10.72 19.744 20.512 42.816 28.096 66.88l0.768 2.848 71.872 11.968c30.144 5.152 52.8 31.104 52.8 62.336 0 0.032 0 0.096 0 0.128v0 90.048c0 0.32 0 0.672 0 1.056 0 30.944-22.496 56.608-52.032 61.568l-0.352 0.064zM966.848 403.168h-0.32c0-0.032 0-0.064 0-0.096 0-2.752-2.016-5.056-4.672-5.472h-0.032l-89.824-14.976c-11.296-1.92-20.224-10.24-23.072-20.992l-0.032-0.192c-8.864-34.016-21.6-63.84-38.080-91.168l0.864 1.536c-2.528-4.224-4.032-9.312-4.032-14.752 0-6.24 1.984-12.032 5.376-16.768l-0.064 0.096 52.992-74.56c0.608-0.896 0.96-2.016 0.96-3.232 0-1.568-0.608-3.008-1.632-4.032l-63.776-63.776c-0.992-1.056-2.4-1.696-3.968-1.696-0.032 0-0.064 0-0.096 0v0c0 0-0.032 0-0.032 0-1.184 0-2.304 0.384-3.168 1.056v0l-74.208 52.8c-4.64 3.328-10.432 5.312-16.704 5.312-5.44 0-10.528-1.504-14.88-4.128l0.128 0.064c-25.792-15.584-55.616-28.32-87.232-36.672l-2.4-0.544c-11.008-2.816-19.36-11.776-21.184-22.944l-0.032-0.16-15.2-89.824c-0.416-2.688-2.688-4.704-5.472-4.704-0.032 0-0.064 0-0.096 0h-90.048c-0.032 0-0.064 0-0.096 0-2.752 0-5.056 2.016-5.472 4.672v0.032l-14.976 89.824c-1.92 11.296-10.24 20.224-20.992 23.072l-0.192 0.032c-33.312 8.832-62.496 21.12-89.408 36.864l1.696-0.896c-4.192 2.4-9.184 3.84-14.528 3.872v0c-0.032 0-0.096 0-0.16 0-6.208 0-11.968-2.016-16.608-5.408l0.064 0.064-74.848-53.248c-0.896-0.608-2.016-0.992-3.2-1.056v0c-1.6 0-3.040 0.64-4.064 1.696l-63.776 63.776c-1.024 1.024-1.632 2.464-1.632 4.032 0 1.216 0.384 2.336 0.992 3.264v-0.032l52.8 73.792c3.328 4.704 5.312 10.528 5.312 16.864 0 5.472-1.504 10.592-4.096 14.976l0.064-0.128c-15.776 25.728-28.672 55.456-37.12 86.976l-0.544 2.368c-3.008 10.88-11.904 19.104-22.944 21.12l-0.192 0.032-90.624 15.424c-2.688 0.416-4.704 2.688-4.704 5.472 0 0.032 0 0.064 0 0.096v0 89.888c0 0.032 0 0.064 0 0.096 0 2.752 2.016 5.056 4.672 5.472h0.032l89.344 14.944c11.392 1.952 20.416 10.336 23.264 21.216l0.032 0.192c8.608 34.048 21.152 63.968 37.408 91.424l-0.864-1.568c2.496 4.128 3.968 9.12 3.968 14.464 0 6.304-2.048 12.128-5.504 16.832l0.064-0.064-53.248 74.848c-0.608 0.896-0.992 2.016-0.992 3.232 0 1.568 0.608 3.008 1.632 4.032l63.776 63.776c0.992 1.056 2.4 1.696 3.936 1.696 0.032 0 0.096 0 0.128 0v0c0 0 0.032 0 0.032 0 1.184 0 2.304-0.384 3.168-1.056v0l73.792-52.8c4.704-3.328 10.528-5.344 16.864-5.344 5.472 0 10.592 1.504 14.976 4.096l-0.128-0.064c25.728 15.776 55.424 28.64 86.976 37.12l2.368 0.544c10.88 3.008 19.104 11.904 21.12 22.944l0.032 0.192 15.392 90.496c0.416 2.688 2.688 4.704 5.472 4.704 0.032 0 0.064 0 0.096 0h89.952c0.032 0 0.064 0 0.096 0 2.752 0 5.056-2.016 5.472-4.672v-0.032l14.976-89.344c1.92-11.392 10.304-20.416 21.216-23.264l0.192-0.032c34.816-8.864 65.376-21.792 93.376-38.528l-1.6 0.864c4.224-2.528 9.28-4.032 14.72-4.032 6.272 0 12.064 1.984 16.8 5.376l-0.096-0.064 73.792 53.056c0.896 0.608 2.016 0.992 3.2 1.056v0c1.6 0 3.040-0.672 4.064-1.696l63.776-63.776c1.024-1.056 1.632-2.464 1.632-4.032 0-1.216-0.352-2.336-0.992-3.264v0.032l-52.8-74.208c-3.328-4.64-5.312-10.464-5.312-16.736 0-5.44 1.504-10.496 4.096-14.848l-0.064 0.128c15.616-25.792 28.352-55.616 36.704-87.232l0.544-2.4c2.816-11.008 11.808-19.296 22.944-21.152l0.16-0.032 89.824-15.2c2.688-0.416 4.704-2.72 4.704-5.504 0-0.032 0-0.032 0-0.064v0zM512.096 669.088c-122.048 0-220.992-98.944-220.992-220.992s98.944-220.992 220.992-220.992c122.048 0 220.992 98.944 220.992 220.992v0c-0.064 122.016-98.976 220.896-220.96 220.992v0zM512.096 284.928c-90.144 0-163.232 73.088-163.232 163.232s73.088 163.232 163.232 163.232c90.144 0 163.232-73.088 163.232-163.232v0c-0.032-90.144-73.088-163.168-163.232-163.232v0z" />
<glyph unicode="&#xe93b;" glyph-name="Settings-G" d="M971.552 555.68l-71.872 12.192c-8.416 26.944-18.208 50.016-29.952 71.904l1.056-2.176 42.368 59.264c7.392 10.208 11.808 22.944 11.808 36.736 0 17.504-7.136 33.344-18.624 44.768l-63.776 63.776c-11.392 11.488-27.168 18.592-44.64 18.592-0.032 0-0.032 0-0.064 0v0c-0.064 0-0.096 0-0.16 0-13.664 0-26.304-4.416-36.576-11.904l0.192 0.128-59.456-42.368c-20.512 11.168-44.448 21.248-69.44 28.96l-2.848 0.768-11.968 71.008c-5.152 30.144-31.104 52.8-62.336 52.8-0.032 0-0.096 0-0.128 0h-90.112c-0.032 0-0.096 0-0.128 0-31.232 0-57.184-22.656-62.272-52.416l-0.064-0.384-12.384-72.736c-26.816-8.48-49.824-18.432-71.584-30.368l2.048 1.024-58.816 42.368c-10.208 7.36-22.944 11.744-36.704 11.744-17.504 0-33.344-7.104-44.8-18.624v0l-63.968-63.712c-11.488-11.456-18.592-27.296-18.592-44.8 0-13.824 4.416-26.592 11.936-36.992l-0.128 0.192 42.752-60.096c-10.624-19.808-20.288-42.976-27.68-67.136l-0.736-2.816-71.008-11.968c-30.24-5.088-52.992-31.072-52.992-62.368 0-0.096 0-0.224 0-0.32v0.032-90.048c0-0.032 0-0.096 0-0.128 0-31.232 22.656-57.184 52.416-62.272l0.384-0.064 72.736-12.416c8.48-26.816 18.432-49.824 30.368-71.584l-1.024 2.048-42.144-58.592c-7.392-10.208-11.808-22.944-11.808-36.736 0-17.504 7.136-33.344 18.624-44.768l63.776-63.712c11.392-11.488 27.2-18.592 44.64-18.592 13.728 0 26.432 4.384 36.768 11.84l-0.192-0.128 60.384 43.104c19.072-10.208 41.44-19.648 64.704-27.040l2.848-0.768 11.968-71.872c5.152-30.144 31.104-52.8 62.336-52.8 0.032 0 0.096 0 0.128 0h90.272c0.032 0 0.096 0 0.128 0 31.232 0 57.184 22.656 62.272 52.416l0.064 0.384 12.192 71.872c26.944 8.384 50.016 18.176 71.904 29.952l-2.176-1.056 59.264-42.368c10.208-7.36 22.944-11.776 36.736-11.776 17.504 0 33.344 7.104 44.768 18.624l63.776 63.776c11.456 11.456 18.56 27.296 18.56 44.8 0 13.76-4.384 26.528-11.872 36.928l0.128-0.192-42.496 59.392c10.72 19.744 20.512 42.816 28.096 66.88l0.768 2.848 71.872 11.968c30.144 5.152 52.8 31.104 52.8 62.336 0 0.032 0 0.096 0 0.128v0 90.048c0 0.32 0 0.672 0 1.056 0 30.944-22.496 56.608-52.032 61.568l-0.352 0.064zM966.848 403.168h-0.32c0-0.032 0-0.064 0-0.096 0-2.752-2.016-5.056-4.672-5.472h-0.032l-89.824-14.976c-11.296-1.92-20.224-10.24-23.072-20.992l-0.032-0.192c-8.864-34.016-21.6-63.84-38.080-91.168l0.864 1.536c-2.528-4.224-4.032-9.312-4.032-14.752 0-6.24 1.984-12.032 5.376-16.768l-0.064 0.096 52.992-74.56c0.608-0.896 0.96-2.016 0.96-3.232 0-1.568-0.608-3.008-1.632-4.032l-63.776-63.776c-0.992-1.056-2.4-1.696-3.968-1.696-0.032 0-0.064 0-0.096 0v0c0 0-0.032 0-0.032 0-1.184 0-2.304 0.384-3.168 1.056v0l-74.208 52.8c-4.64 3.328-10.432 5.312-16.704 5.312-5.44 0-10.528-1.504-14.88-4.128l0.128 0.064c-25.792-15.584-55.616-28.32-87.232-36.672l-2.4-0.544c-11.008-2.816-19.36-11.776-21.184-22.944l-0.032-0.16-15.2-89.824c-0.416-2.688-2.688-4.704-5.472-4.704-0.032 0-0.064 0-0.096 0h-90.048c-0.032 0-0.064 0-0.096 0-2.752 0-5.056 2.016-5.472 4.672v0.032l-14.976 89.824c-1.92 11.296-10.24 20.224-20.992 23.072l-0.192 0.032c-33.312 8.832-62.496 21.12-89.408 36.864l1.696-0.896c-4.192 2.4-9.184 3.84-14.528 3.872v0c-0.032 0-0.096 0-0.16 0-6.208 0-11.968-2.016-16.608-5.408l0.064 0.064-74.848-53.248c-0.896-0.608-2.016-0.992-3.2-1.056v0c-1.6 0-3.040 0.64-4.064 1.696l-63.776 63.776c-1.024 1.024-1.632 2.464-1.632 4.032 0 1.216 0.384 2.336 0.992 3.264v-0.032l52.8 73.792c3.328 4.704 5.312 10.528 5.312 16.864 0 5.472-1.504 10.592-4.096 14.976l0.064-0.128c-15.776 25.728-28.672 55.456-37.12 86.976l-0.544 2.368c-3.008 10.88-11.904 19.104-22.944 21.12l-0.192 0.032-90.624 15.424c-2.688 0.416-4.704 2.688-4.704 5.472 0 0.032 0 0.064 0 0.096v0 89.888c0 0.032 0 0.064 0 0.096 0 2.752 2.016 5.056 4.672 5.472h0.032l89.344 14.944c11.392 1.952 20.416 10.336 23.264 21.216l0.032 0.192c8.608 34.048 21.152 63.968 37.408 91.424l-0.864-1.568c2.496 4.128 3.968 9.12 3.968 14.464 0 6.304-2.048 12.128-5.504 16.832l0.064-0.064-53.248 74.848c-0.608 0.896-0.992 2.016-0.992 3.232 0 1.568 0.608 3.008 1.632 4.032l63.776 63.776c0.992 1.056 2.4 1.696 3.936 1.696 0.032 0 0.096 0 0.128 0v0c0 0 0.032 0 0.032 0 1.184 0 2.304-0.384 3.168-1.056v0l73.792-52.8c4.704-3.328 10.528-5.344 16.864-5.344 5.472 0 10.592 1.504 14.976 4.096l-0.128-0.064c25.728 15.776 55.424 28.64 86.976 37.12l2.368 0.544c10.88 3.008 19.104 11.904 21.12 22.944l0.032 0.192 15.392 90.496c0.416 2.688 2.688 4.704 5.472 4.704 0.032 0 0.064 0 0.096 0h89.952c0.032 0 0.064 0 0.096 0 2.752 0 5.056-2.016 5.472-4.672v-0.032l14.976-89.344c1.92-11.392 10.304-20.416 21.216-23.264l0.192-0.032c34.816-8.864 65.376-21.792 93.376-38.528l-1.6 0.864c4.224-2.528 9.28-4.032 14.72-4.032 6.272 0 12.064 1.984 16.8 5.376l-0.096-0.064 73.792 53.056c0.896 0.608 2.016 0.992 3.2 1.056v0c1.6 0 3.040-0.672 4.064-1.696l63.776-63.776c1.024-1.056 1.632-2.464 1.632-4.032 0-1.216-0.352-2.336-0.992-3.264v0.032l-52.8-74.208c-3.328-4.64-5.312-10.464-5.312-16.736 0-5.44 1.504-10.496 4.096-14.848l-0.064 0.128c15.616-25.792 28.352-55.616 36.704-87.232l0.544-2.4c2.816-11.008 11.808-19.296 22.944-21.152l0.16-0.032 89.824-15.2c2.688-0.416 4.704-2.72 4.704-5.504 0-0.032 0-0.032 0-0.064v0zM512.096 669.088c-122.048 0-220.992-98.944-220.992-220.992s98.944-220.992 220.992-220.992c122.048 0 220.992 98.944 220.992 220.992v0c-0.064 122.016-98.976 220.896-220.96 220.992v0zM512.096 284.928c-90.144 0-163.232 73.088-163.232 163.232s73.088 163.232 163.232 163.232c90.144 0 163.232-73.088 163.232-163.232v0c-0.032-90.144-73.088-163.168-163.232-163.232v0z" />
<glyph unicode="&#xe93c;" glyph-name="Support" d="M519.168 703.296l38.272-38.272h-170.048l-177.856-177.856 106.976-105.856 37.184 37.184-67.584 68.704 123.968 123.968h318.72l284.928 283.808-38.272 38.304-268.032-268.032h-74.336l-92.32 91.232h-326.592l-175.712 176.832-38.272-38.304 192.576-191.424zM221.888 340.64l-20.256-20.256-163.296 164.448-38.272-38.304 164.448-163.296-21.568-21.568 37.184-38.304 79.968 79.968zM343.808 221.28l-79.648-79.648-38.208 38.208 79.648 79.648 38.208-38.208zM1013.6 388.864l-38.272 37.184-150.912-150.912-183.552 183.552h-127.296v-53.888h104.704l242.144-242.144 38.272 38.272-37.184 36.064zM514.144 253.44l187.968-187.968-38.24-38.24-187.968 187.968 38.24 38.24zM624.544 310.24l191.104-191.104-38.208-38.208-191.104 191.104 38.208 38.208zM306.336 98.56l38.272-38.304 60.8 60.8 43.936-43.936-60.8-60.8 37.184-38.304 60.8 60.8 66.464-65.312 37.184 38.272-184.704 184.704z" />
<glyph unicode="&#xe93d;" glyph-name="Support-G" d="M519.168 703.296l38.272-38.272h-170.048l-177.856-177.856 106.976-105.856 37.184 37.184-67.584 68.704 123.968 123.968h318.72l284.928 283.808-38.272 38.304-268.032-268.032h-74.336l-92.32 91.232h-326.592l-175.712 176.832-38.272-38.304 192.576-191.424zM221.888 340.64l-20.256-20.256-163.296 164.448-38.272-38.304 164.448-163.296-21.568-21.568 37.184-38.304 79.968 79.968zM343.808 221.28l-79.648-79.648-38.208 38.208 79.648 79.648 38.208-38.208zM1013.6 388.864l-38.272 37.184-150.912-150.912-183.552 183.552h-127.296v-53.888h104.704l242.144-242.144 38.272 38.272-37.184 36.064zM514.144 253.44l187.968-187.968-38.24-38.24-187.968 187.968 38.24 38.24zM624.544 310.24l191.104-191.104-38.208-38.208-191.104 191.104 38.208 38.208zM306.336 98.56l38.272-38.304 60.8 60.8 43.936-43.936-60.8-60.8 37.184-38.304 60.8 60.8 66.464-65.312 37.184 38.272-184.704 184.704z" />
<glyph unicode="&#xe93e;" glyph-name="TRANSFER-DATA-TO-FDD" d="M946.944-84.736l-1.376 795.712-255.072 248.672h-561.216c-66.208-2.464-49.248 15.68-51.2-55.968l-1.44-988.16c0.768-0.96 869.536 0.864 870.304-0.256zM889.44-30.016h-755.104v934.912h454.080v-293.44h300.992zM644.544 666.304v243.776l250.016-243.776zM385.12 315.328h356.96l-139.84 139.84c-4.544 4.544-10.784 7.328-17.728 7.328-13.824 0-25.056-11.232-25.056-25.056 0-6.912 2.816-13.184 7.328-17.728l54.272-54.272h-235.968c-13.856 0-25.056-11.232-25.056-25.056s11.232-25.056 25.056-25.056v0zM499.968 125.632c4.544 4.544 7.36 10.784 7.36 17.728s-2.816 13.184-7.328 17.728v0l-54.272 54.464h235.936c13.856 0 25.056 11.232 25.056 25.056s-11.232 25.056-25.056 25.056v0h-356.96l139.84-139.84c4.544-4.608 10.848-7.456 17.856-7.456 6.88 0 13.12 2.752 17.632 7.264v0z" />
<glyph unicode="&#xe93f;" glyph-name="TRANSFER-DATA-TO-FDD-G" d="M946.944-84.736l-1.376 795.712-255.072 248.672h-561.216c-66.208-2.464-49.248 15.68-51.2-55.968l-1.44-988.16c0.768-0.96 869.536 0.864 870.304-0.256zM889.44-30.016h-755.104v934.912h454.080v-293.44h300.992zM644.544 666.304v243.776l250.016-243.776zM385.12 315.328h356.96l-139.84 139.84c-4.544 4.544-10.784 7.328-17.728 7.328-13.824 0-25.056-11.232-25.056-25.056 0-6.912 2.816-13.184 7.328-17.728l54.272-54.272h-235.968c-13.856 0-25.056-11.232-25.056-25.056s11.232-25.056 25.056-25.056v0zM499.968 125.632c4.544 4.544 7.36 10.784 7.36 17.728s-2.816 13.184-7.328 17.728v0l-54.272 54.464h235.936c13.856 0 25.056 11.232 25.056 25.056s-11.232 25.056-25.056 25.056v0h-356.96l139.84-139.84c4.544-4.608 10.848-7.456 17.856-7.456 6.88 0 13.12 2.752 17.632 7.264v0z" />
<glyph unicode="&#xe940;" glyph-name="Upload1" d="M951.168 437.344h73.344v334.72c-3.808 57.696-51.552 103.072-109.888 103.072-3.552 0-7.072-0.16-10.528-0.48l0.448 0.032h-804.256c-0.576 0-1.248 0.032-1.952 0.032-54.656 0-98.944-44.288-98.944-98.944 0-3.872 0.224-7.712 0.672-11.488l-0.032 0.448v-324.96h73.344v329.824c0 0 0 0.032 0 0.032 0 20.224 16.384 36.608 36.608 36.608 0.032 0 0.064 0 0.096 0h797.12s44.032 0 44.032-41.568zM481.696 1.792h68.256v525.088l144.256-141.664 48.896 51.2-178.272 180.832c-13.184 12.032-30.784 19.392-50.144 19.392s-36.96-7.36-50.208-19.456l0.064 0.064-180.96-180.736 53.792-48.864 139.36 139.232z" />
<glyph unicode="&#xe941;" glyph-name="Upload-G1" d="M951.168 437.344h73.344v334.72c-3.808 57.696-51.552 103.072-109.888 103.072-3.552 0-7.072-0.16-10.528-0.48l0.448 0.032h-804.256c-0.576 0-1.248 0.032-1.952 0.032-54.656 0-98.944-44.288-98.944-98.944 0-3.872 0.224-7.712 0.672-11.488l-0.032 0.448v-324.96h73.344v329.824c0 0 0 0.032 0 0.032 0 20.224 16.384 36.608 36.608 36.608 0.032 0 0.064 0 0.096 0h797.12s44.032 0 44.032-41.568zM481.696 1.792h68.256v525.088l144.256-141.664 48.896 51.2-178.272 180.832c-13.184 12.032-30.784 19.392-50.144 19.392s-36.96-7.36-50.208-19.456l0.064 0.064-180.96-180.736 53.792-48.864 139.36 139.232z" />
<glyph unicode="&#xe942;" glyph-name="Action-G1" d="M512.043-64c-282.77 0-512 229.23-512 512s229.23 512 512 512c282.77 0 512-229.23 512-512v0c0-282.77-229.23-512-512-512v0zM512.043 911.829c-256.166 0-463.829-207.663-463.829-463.829s207.663-463.829 463.829-463.829c256.166 0 463.829 207.663 463.829 463.829v0c-0.146 256.107-207.722 463.684-463.815 463.829h-0.014zM372.139 236.8l-2.688 420.011 390.315-208.683zM419.072 576.043v-257.152l238.293 129.237z" />
<glyph unicode="&#xe943;" glyph-name="Action1" d="M512.043-64c-282.77 0-512 229.23-512 512s229.23 512 512 512c282.77 0 512-229.23 512-512v0c0-282.77-229.23-512-512-512v0zM512.043 911.829c-256.166 0-463.829-207.663-463.829-463.829s207.663-463.829 463.829-463.829c256.166 0 463.829 207.663 463.829 463.829v0c-0.146 256.107-207.722 463.684-463.815 463.829h-0.014zM372.139 236.8l-2.688 420.011 390.315-208.683zM419.072 576.043v-257.152l238.293 129.237z" />
<glyph unicode="&#xe944;" glyph-name="ALLOCATION-KEY-G1" d="M1006.933 960h-153.6c-0.004 0-0.009 0-0.013 0-9.426 0-17.067-7.641-17.067-17.067 0-4.716 1.913-8.986 5.005-12.075v0l39.125-39.125-82.517-82.645c-77.682 62.177-177.383 99.779-285.867 99.779s-208.184-37.603-286.78-100.485l0.913 0.706-82.517 82.645 39.125 39.125c3.092 3.089 5.005 7.359 5.005 12.075 0 9.426-7.641 17.067-17.067 17.067-0.005 0-0.009 0-0.014 0h-153.599c-9.426 0-17.067-7.641-17.067-17.067v0-153.6c0-0.004 0-0.009 0-0.013 0-9.426 7.641-17.067 17.067-17.067 4.716 0 8.986 1.913 12.075 5.005v0l39.125 39.125 82.645-82.517c-62.177-77.682-99.779-177.383-99.779-285.867s37.603-208.184 100.485-286.78l-0.706 0.913-82.645-82.517-39.125 39.125c-3.089 3.092-7.359 5.005-12.075 5.005-9.426 0-17.067-7.641-17.067-17.067 0-0.005 0-0.009 0-0.014v0.001-153.6c0-9.426 7.641-17.067 17.067-17.067h153.6c0.004 0 0.009 0 0.013 0 9.426 0 17.067 7.641 17.067 17.067 0 4.716-1.913 8.986-5.005 12.075v0l-39.125 39.125 82.517 82.645c77.682-62.177 177.383-99.779 285.867-99.779s208.184 37.603 286.78 100.485l-0.913-0.706 82.517-82.645-39.125-39.125c-3.092-3.089-5.005-7.359-5.005-12.075 0-9.426 7.641-17.067 17.067-17.067 0.005 0 0.009 0 0.014 0h153.599c9.426 0 17.067 7.641 17.067 17.067v0 153.6c0 0.004 0 0.009 0 0.013 0 9.426-7.641 17.067-17.067 17.067-4.716 0-8.986-1.913-12.075-5.005v0l-39.125-39.125-82.645 82.517c62.177 77.682 99.779 177.383 99.779 285.867s-37.603 208.184-100.485 286.78l0.706-0.913 82.645 82.517 39.125-39.125c3.089-3.092 7.359-5.005 12.075-5.005 9.426 0 17.067 7.641 17.067 17.067 0 0.005 0 0.009 0 0.014v-0.001 153.6c0 9.426-7.641 17.067-17.067 17.067v0zM172.971 759.936l-92.629 92.672c-3.089 3.092-7.358 5.005-12.075 5.005s-8.986-1.913-12.075-5.005v0l-22.059-22.059v95.317h95.317l-22.059-22.059c-3.092-3.089-5.005-7.358-5.005-12.075s1.913-8.986 5.005-12.075l92.672-92.629c-1.749-1.621-3.328-3.413-5.035-5.035q-8.533-8.277-17.067-17.067c-1.579-1.664-3.371-3.243-4.992-4.992zM200.021 108.971l-92.629-92.629c-3.092-3.089-5.005-7.358-5.005-12.075s1.913-8.986 5.005-12.075v0l22.059-22.059h-95.317v95.317l22.059-22.059c3.089-3.092 7.358-5.005 12.075-5.005s8.986 1.913 12.075 5.005v0l92.672 92.672c1.621-1.749 3.413-3.328 5.035-5.035q8.277-8.533 17.067-17.067c1.621-1.579 3.2-3.371 4.949-4.992zM850.987 136.021l92.672-92.672c3.089-3.092 7.358-5.005 12.075-5.005s8.986 1.913 12.075 5.005v0l22.059 22.059v-95.275h-95.317l22.059 22.059c3.092 3.089 5.005 7.358 5.005 12.075s-1.913 8.986-5.005 12.075v0l-92.672 92.672c1.749 1.621 3.328 3.413 5.035 5.035q8.533 8.277 17.067 17.067c1.579 1.621 3.371 3.2 4.992 4.949zM833.109 167.509q-7.723-8.789-15.872-17.067-3.712-3.797-7.509-7.509-8.533-8.149-17.067-15.787c-74.483-65.6-172.854-105.637-280.576-105.637s-206.093 40.037-281.045 106.042l0.469-0.405c-5.845 5.12-11.563 10.368-17.067 15.787q-3.797 3.712-7.509 7.509-8.192 8.533-15.872 17.067c-65.544 74.467-105.543 172.797-105.543 280.469s40 206.002 105.95 280.941l-0.407-0.472q7.723 8.789 15.872 17.067 3.712 3.797 7.509 7.509 8.533 8.149 17.067 15.787c74.483 65.6 172.854 105.637 280.576 105.637s206.093-40.037 281.045-106.042l-0.469 0.405c5.845-5.12 11.563-10.368 17.067-15.787q3.797-3.712 7.509-7.509 8.192-8.533 15.872-17.067c65.544-74.467 105.543-172.797 105.543-280.469s-40-206.002-105.95-280.941l0.407 0.472zM989.867 830.549l-22.059 22.059c-3.089 3.092-7.358 5.005-12.075 5.005s-8.986-1.913-12.075-5.005l-92.629-92.672c-1.621 1.749-3.413 3.328-5.035 5.035q-8.277 8.533-17.067 17.067c-1.707 1.621-3.285 3.413-5.035 5.035l92.672 92.672c3.092 3.089 5.005 7.358 5.005 12.075s-1.913 8.986-5.005 12.075l-22.016 21.973h95.317z" />
<glyph unicode="&#xe945;" glyph-name="ALLOCATION-KEY1" d="M1006.933 960h-153.6c-0.004 0-0.009 0-0.013 0-9.426 0-17.067-7.641-17.067-17.067 0-4.716 1.913-8.986 5.005-12.075v0l39.125-39.125-82.517-82.645c-77.682 62.177-177.383 99.779-285.867 99.779s-208.184-37.603-286.78-100.485l0.913 0.706-82.517 82.645 39.125 39.125c3.092 3.089 5.005 7.359 5.005 12.075 0 9.426-7.641 17.067-17.067 17.067-0.005 0-0.009 0-0.014 0h-153.599c-9.426 0-17.067-7.641-17.067-17.067v0-153.6c0-0.004 0-0.009 0-0.013 0-9.426 7.641-17.067 17.067-17.067 4.716 0 8.986 1.913 12.075 5.005v0l39.125 39.125 82.645-82.517c-62.177-77.682-99.779-177.383-99.779-285.867s37.603-208.184 100.485-286.78l-0.706 0.913-82.645-82.517-39.125 39.125c-3.089 3.092-7.359 5.005-12.075 5.005-9.426 0-17.067-7.641-17.067-17.067 0-0.005 0-0.009 0-0.014v0.001-153.6c0-9.426 7.641-17.067 17.067-17.067h153.6c0.004 0 0.009 0 0.013 0 9.426 0 17.067 7.641 17.067 17.067 0 4.716-1.913 8.986-5.005 12.075v0l-39.125 39.125 82.517 82.645c77.682-62.177 177.383-99.779 285.867-99.779s208.184 37.603 286.78 100.485l-0.913-0.706 82.517-82.645-39.125-39.125c-3.092-3.089-5.005-7.359-5.005-12.075 0-9.426 7.641-17.067 17.067-17.067 0.005 0 0.009 0 0.014 0h153.599c9.426 0 17.067 7.641 17.067 17.067v0 153.6c0 0.004 0 0.009 0 0.013 0 9.426-7.641 17.067-17.067 17.067-4.716 0-8.986-1.913-12.075-5.005v0l-39.125-39.125-82.645 82.517c62.177 77.682 99.779 177.383 99.779 285.867s-37.603 208.184-100.485 286.78l0.706-0.913 82.645 82.517 39.125-39.125c3.089-3.092 7.359-5.005 12.075-5.005 9.426 0 17.067 7.641 17.067 17.067 0 0.005 0 0.009 0 0.014v-0.001 153.6c0 9.426-7.641 17.067-17.067 17.067v0zM172.971 759.936l-92.629 92.672c-3.089 3.092-7.358 5.005-12.075 5.005s-8.986-1.913-12.075-5.005v0l-22.059-22.059v95.317h95.317l-22.059-22.059c-3.092-3.089-5.005-7.358-5.005-12.075s1.913-8.986 5.005-12.075l92.672-92.629c-1.749-1.621-3.328-3.413-5.035-5.035q-8.533-8.277-17.067-17.067c-1.579-1.664-3.371-3.243-4.992-4.992zM200.021 108.971l-92.629-92.629c-3.092-3.089-5.005-7.358-5.005-12.075s1.913-8.986 5.005-12.075v0l22.059-22.059h-95.317v95.317l22.059-22.059c3.089-3.092 7.358-5.005 12.075-5.005s8.986 1.913 12.075 5.005v0l92.672 92.672c1.621-1.749 3.413-3.328 5.035-5.035q8.277-8.533 17.067-17.067c1.621-1.579 3.2-3.371 4.949-4.992zM850.987 136.021l92.672-92.672c3.089-3.092 7.358-5.005 12.075-5.005s8.986 1.913 12.075 5.005v0l22.059 22.059v-95.275h-95.317l22.059 22.059c3.092 3.089 5.005 7.358 5.005 12.075s-1.913 8.986-5.005 12.075v0l-92.672 92.672c1.749 1.621 3.328 3.413 5.035 5.035q8.533 8.277 17.067 17.067c1.579 1.621 3.371 3.2 4.992 4.949zM833.109 167.509q-7.723-8.789-15.872-17.067-3.712-3.797-7.509-7.509-8.533-8.149-17.067-15.787c-74.483-65.6-172.854-105.637-280.576-105.637s-206.093 40.037-281.045 106.042l0.469-0.405c-5.845 5.12-11.563 10.368-17.067 15.787q-3.797 3.712-7.509 7.509-8.192 8.533-15.872 17.067c-65.544 74.467-105.543 172.797-105.543 280.469s40 206.002 105.95 280.941l-0.407-0.472q7.723 8.789 15.872 17.067 3.712 3.797 7.509 7.509 8.533 8.149 17.067 15.787c74.483 65.6 172.854 105.637 280.576 105.637s206.093-40.037 281.045-106.042l-0.469 0.405c5.845-5.12 11.563-10.368 17.067-15.787q3.797-3.712 7.509-7.509 8.192-8.533 15.872-17.067c65.544-74.467 105.543-172.797 105.543-280.469s-40-206.002-105.95-280.941l0.407 0.472zM989.867 830.549l-22.059 22.059c-3.089 3.092-7.358 5.005-12.075 5.005s-8.986-1.913-12.075-5.005l-92.629-92.672c-1.621 1.749-3.413 3.328-5.035 5.035q-8.277 8.533-17.067 17.067c-1.707 1.621-3.285 3.413-5.035 5.035l92.672 92.672c3.092 3.089 5.005 7.358 5.005 12.075s-1.913 8.986-5.005 12.075l-22.016 21.973h95.317z" />
<glyph unicode="&#xe946;" glyph-name="Backup-Buyer-G" horiz-adv-x="1015" d="M507.531 375.988c-161.25 0.026-291.96 130.752-291.96 292.006 0 161.271 130.736 292.006 292.006 292.006s292.006-130.736 292.006-292.006v0c-0.212-161.202-130.847-291.821-292.035-292.006h-0.018zM507.531 880.633c-117.417-0.026-212.592-95.218-212.592-212.639 0-117.437 95.202-212.639 212.639-212.639s212.639 95.202 212.639 212.639v0c-0.159 117.39-95.292 212.507-212.673 212.639h-0.013zM39.707-64c-0.014 0-0.030 0-0.047 0-4.795 0-9.388 0.87-13.627 2.462l0.267-0.088c-15.442 5.659-26.263 20.23-26.263 37.329 0 4.81 0.856 9.42 2.425 13.685l-0.089-0.275c76.752 208.801 273.898 355.057 505.204 355.057s428.452-146.257 504.004-351.336l1.2-3.722c1.298-3.755 2.048-8.083 2.048-12.586 0-21.93-17.777-39.707-39.707-39.707-16.796 0-31.157 10.429-36.96 25.165l-0.093 0.269c-65.324 178.065-233.385 302.821-430.585 302.821s-365.261-124.756-429.564-299.648l-1.021-3.173c-5.668-15.38-20.16-26.166-37.182-26.254h-0.011z" />
<glyph unicode="&#xe947;" glyph-name="Backup-Buyer" horiz-adv-x="1015" d="M507.531 375.988c-161.25 0.026-291.96 130.752-291.96 292.006 0 161.271 130.736 292.006 292.006 292.006s292.006-130.736 292.006-292.006v0c-0.212-161.202-130.847-291.821-292.035-292.006h-0.018zM507.531 880.633c-117.417-0.026-212.592-95.218-212.592-212.639 0-117.437 95.202-212.639 212.639-212.639s212.639 95.202 212.639 212.639v0c-0.159 117.39-95.292 212.507-212.673 212.639h-0.013zM39.707-64c-0.014 0-0.030 0-0.047 0-4.795 0-9.388 0.87-13.627 2.462l0.267-0.088c-15.442 5.659-26.263 20.23-26.263 37.329 0 4.81 0.856 9.42 2.425 13.685l-0.089-0.275c76.752 208.801 273.898 355.057 505.204 355.057s428.452-146.257 504.004-351.336l1.2-3.722c1.298-3.755 2.048-8.083 2.048-12.586 0-21.93-17.777-39.707-39.707-39.707-16.796 0-31.157 10.429-36.96 25.165l-0.093 0.269c-65.324 178.065-233.385 302.821-430.585 302.821s-365.261-124.756-429.564-299.648l-1.021-3.173c-5.668-15.38-20.16-26.166-37.182-26.254h-0.011z" />
<glyph unicode="&#xe948;" glyph-name="Calendar-G" horiz-adv-x="878" d="M777.488 686.905h-161.207v273.095h161.207zM658.077 728.701h77.615v189.503h-77.615zM177.633 491.301v-146.286h104.49v146.286h-104.49zM146.286 522.648h167.184v-208.98h-167.184zM522.825 313.668h-167.184v208.98h167.184zM386.988 345.015h104.49v146.286h-104.49zM732.139 313.668h-167.184v208.98h167.184zM596.302 345.015h104.49v146.286h-104.49zM313.469 38.734h-167.184v208.98h167.184zM177.633 70.081h104.49v146.286h-104.49zM522.825 38.734h-167.184v208.98h167.184zM386.988 70.081h104.49v146.286h-104.49zM732.139 38.734h-167.184v208.98h167.184zM596.302 70.081h104.49v146.286h-104.49zM32.099 646.071h823.003v-45.014h-823.003v45.014zM273.93 686.905h-161.165v273.095h161.165zM154.561 728.701h77.573v189.503h-77.573zM877.714-64h-877.714v909.396h122.295v-41.796h-80.499v-825.804h794.122v825.804h-72.934v41.796h114.73zM237.986 845.437h417.959v-41.796h-417.959v41.796z" />
<glyph unicode="&#xe949;" glyph-name="Calendar" horiz-adv-x="878" d="M777.488 686.905h-161.207v273.095h161.207zM658.077 728.701h77.615v189.503h-77.615zM177.633 491.301v-146.286h104.49v146.286h-104.49zM146.286 522.648h167.184v-208.98h-167.184zM522.825 313.668h-167.184v208.98h167.184zM386.988 345.015h104.49v146.286h-104.49zM732.139 313.668h-167.184v208.98h167.184zM596.302 345.015h104.49v146.286h-104.49zM313.469 38.734h-167.184v208.98h167.184zM177.633 70.081h104.49v146.286h-104.49zM522.825 38.734h-167.184v208.98h167.184zM386.988 70.081h104.49v146.286h-104.49zM732.139 38.734h-167.184v208.98h167.184zM596.302 70.081h104.49v146.286h-104.49zM32.099 646.071h823.003v-45.014h-823.003v45.014zM273.93 686.905h-161.165v273.095h161.165zM154.561 728.701h77.573v189.503h-77.573zM877.714-64h-877.714v909.396h122.295v-41.796h-80.499v-825.804h794.122v825.804h-72.934v41.796h114.73zM237.986 845.437h417.959v-41.796h-417.959v41.796z" />
</font>
</defs>
</svg>
