<?xml version="1.0" encoding="utf-8"?>
<!-- Generator: Adobe Illustrator 18.0.0, SVG Export Plug-In . SVG Version: 6.00 Build 0)  -->
<!DOCTYPE svg PUBLIC "-//W3C//DTD SVG 1.1//EN" "http://www.w3.org/Graphics/SVG/1.1/DTD/svg11.dtd">
<svg version="1.1" id="Layer_1" xmlns="http://www.w3.org/2000/svg" xmlns:xlink="http://www.w3.org/1999/xlink" x="0px" y="0px"
	 viewBox="0 0 100 100" enable-background="new 0 0 100 100" xml:space="preserve">
<circle fill="#003DAF" cx="49.8" cy="49.9" r="48.9"/>
<g>
	<path fill="#FFFFFF" d="M28.4,62.8c-3.1,0-6.1,0-9.1,0c0.3-0.2,0.5-0.4,0.8-0.6c0.4-0.4,0.8-0.9,0.9-1.5c2.2-7.1,4.5-14.3,6.7-21.4
		c0.1-0.3,0.2-0.5,0.2-0.8c0.1-0.6-0.1-1.1-0.6-1.5c0,0-0.1,0-0.1-0.1c0,0,0.1,0,0.1,0c4,0,7.9,0,11.9,0c1.5,0,2.9,0.3,4.2,1.1
		c1.2,0.7,2.1,1.7,2.4,3.1c0.1,0.7,0.2,1.3,0.1,2c-0.2,1.6-0.7,3.1-1.6,4.5c-1,1.7-2.5,3-4.2,3.9c-1.4,0.7-2.8,1.1-4.3,1.4
		c-1.5,0.3-3,0.3-4.5,0.3c-0.3,0-0.6,0-0.9-0.1c-0.2,0-0.2,0-0.2,0.2c-0.3,1.1-0.7,2.2-1,3.3c-0.4,1.4-0.9,2.9-1.4,4.3
		C27.3,61.6,27.6,62.4,28.4,62.8z M30.6,51C30.7,51,30.7,51,30.6,51c1.3,0.3,2.5,0.1,3.6-0.4c1.3-0.6,2.2-1.5,2.9-2.7
		c0.7-1.2,1.2-2.5,1.5-3.8c0.2-1,0.4-2,0.3-3c-0.1-0.9-0.6-1.6-1.4-2c-0.4-0.2-0.9-0.3-1.3-0.3c-0.5,0-1,0-1.5,0
		c-0.1,0-0.2,0-0.2,0.2c-1.2,3.8-2.4,7.5-3.5,11.3C30.8,50.5,30.7,50.8,30.6,51z"/>
	<path fill="#FFFFFF" d="M69.6,49.4c3.4,0,6.7,0,10,0c-0.3,0.2-0.6,0.3-0.9,0.5c-0.6,0.4-1,1-1.2,1.7c-1,3.1-2,6.2-2.9,9.4
		c0,0.1-0.1,0.2-0.2,0.2c-1.7,0.8-3.4,1.4-5.3,1.7c-1.2,0.2-2.4,0.3-3.6,0.3c-1.9-0.1-3.7-0.5-5.4-1.4c-1.3-0.7-2.2-1.8-2.9-3.2
		c-0.4-1-0.7-2-0.9-3c-0.1-1-0.2-1.9-0.1-2.9c0.2-3.4,1.2-6.6,3.2-9.4c1.9-2.6,4.3-4.4,7.2-5.6c1.2-0.5,2.5-0.8,3.7-1
		c1.3-0.2,2.6-0.2,3.8-0.2c2,0.1,4,0.5,6,1.1c0,0,0.1,0,0.1,0c-0.4,1.1-0.7,2.3-1.1,3.4c-0.1-0.1-0.1-0.1-0.2-0.1
		c-1-0.9-2.2-1.6-3.5-2c-0.8-0.3-1.7-0.4-2.5-0.3c-1.3,0.1-2.4,0.5-3.5,1.2c-1.1,0.8-2,1.7-2.9,2.8c-1.6,2.1-2.6,4.5-3.4,7
		c-0.4,1.2-0.7,2.5-0.9,3.7c-0.2,1-0.3,2-0.2,3c0,0.9,0.2,1.8,0.6,2.7c0.6,1.2,1.5,1.8,2.8,2c0.6,0.1,1.3,0.1,1.9,0
		c0.1,0,0.2-0.1,0.2-0.2c0.7-2.1,1.3-4.2,2-6.3c0.3-0.9,0.5-1.8,0.8-2.7c0.4-1.1-0.1-1.9-1-2.3C69.7,49.5,69.7,49.5,69.6,49.4z"/>
	<path fill="#FFFFFF" d="M51.6,57.3c0-0.1,0.1-0.1,0.1-0.1c0.5-0.7,0.7-1.4,0.8-2.2c0-0.5-0.1-0.8-0.6-1.3c1.1,0,2.1,0,3.2,0
		c-0.1,0.3-0.1,0.7-0.2,1c-0.3,1.4-1,2.7-1.9,3.7c-0.1,0.1-0.2,0.2-0.2,0.3c-0.1,0.1-0.1,0.1,0,0.2c0.4,0.3,0.7,0.7,1.1,1
		c1.5,1.2,3.1,2.1,4.8,2.8c0,0,0,0,0.1,0c-0.1,0-0.1,0-0.2,0c-2,0-4,0-5.9,0c-0.1,0-0.3,0-0.4-0.1c-0.6-0.4-1.1-0.9-1.6-1.3
		c-0.2-0.1-0.3-0.3-0.5-0.4c-0.1-0.1-0.2-0.1-0.3,0c-0.8,0.6-1.7,1.1-2.7,1.5c-0.8,0.3-1.7,0.6-2.6,0.7c-1.4,0.1-2.8,0-4-0.6
		c-1.4-0.8-2.3-2-2.5-3.6c-0.3-2.2,0.5-4,2.2-5.4c1-0.8,2.2-1.4,3.5-1.8c0.5-0.2,0.9-0.3,1.4-0.5c0.1,0,0.1-0.1,0.1-0.2
		c0-0.6,0-1.3,0.1-1.9c0.2-1.5,0.6-2.9,1.5-4.2c0.8-1.1,2-1.7,3.3-2c1.1-0.3,2.2-0.2,3.2,0.2c0.9,0.4,1.6,1.1,1.9,2.2
		c0.2,0.8,0,1.6-0.4,2.4c-0.5,0.8-1.1,1.4-1.8,1.9c-0.9,0.7-1.9,1.2-2.9,1.6c-0.3,0.1-0.6,0.3-0.9,0.4c-0.1,0-0.1,0.1-0.1,0.2
		c0.3,1.8,1,3.4,2,4.9C51.4,57,51.5,57.1,51.6,57.3z M45.9,53.2C45.8,53.2,45.8,53.2,45.9,53.2c-1.1,0.5-1.9,1.1-2.6,1.9
		c-0.8,0.9-1.2,1.9-1.1,3.1c0.1,0.7,0.4,1.3,0.9,1.7c0.8,0.7,1.7,0.8,2.7,0.7c0.9-0.1,1.7-0.4,2.6-0.8c0.2-0.1,0.3-0.2,0.5-0.3
		C47.5,57.5,46.5,55.5,45.9,53.2z M48.9,50c0.1,0,0.2-0.1,0.2-0.1c1.2-0.8,2.2-1.8,3-3c0.3-0.5,0.5-1,0.5-1.5
		c0.1-0.8-0.3-1.2-1.1-1.2c-0.4,0-0.7,0.2-1,0.4c-0.4,0.4-0.7,0.8-1,1.3c-0.6,1.2-0.8,2.5-0.7,3.9C48.9,49.8,48.9,49.9,48.9,50z"/>
</g>
</svg>
